G04 EAGLE Gerber RS-274X export*
G75*
%MOMM*%
%FSLAX34Y34*%
%LPD*%
%IN*%
%IPPOS*%
%AMOC8*
5,1,8,0,0,1.08239X$1,22.5*%
G01*
%ADD10C,0.254000*%


D10*
X0Y0D02*
X2006600Y0D01*
X2006600Y1371600D01*
X0Y1371600D01*
X0Y0D01*
X65800Y50264D02*
X65724Y49196D01*
X65571Y48135D01*
X65343Y47088D01*
X65041Y46060D01*
X64667Y45056D01*
X64222Y44081D01*
X63708Y43141D01*
X63129Y42240D01*
X62487Y41382D01*
X61785Y40572D01*
X61028Y39815D01*
X60218Y39113D01*
X59360Y38471D01*
X58459Y37892D01*
X57519Y37378D01*
X56544Y36933D01*
X55540Y36559D01*
X54512Y36257D01*
X53465Y36029D01*
X52404Y35876D01*
X51336Y35800D01*
X50264Y35800D01*
X49196Y35876D01*
X48135Y36029D01*
X47088Y36257D01*
X46060Y36559D01*
X45056Y36933D01*
X44081Y37378D01*
X43141Y37892D01*
X42240Y38471D01*
X41382Y39113D01*
X40572Y39815D01*
X39815Y40572D01*
X39113Y41382D01*
X38471Y42240D01*
X37892Y43141D01*
X37378Y44081D01*
X36933Y45056D01*
X36559Y46060D01*
X36257Y47088D01*
X36029Y48135D01*
X35876Y49196D01*
X35800Y50264D01*
X35800Y51336D01*
X35876Y52404D01*
X36029Y53465D01*
X36257Y54512D01*
X36559Y55540D01*
X36933Y56544D01*
X37378Y57519D01*
X37892Y58459D01*
X38471Y59360D01*
X39113Y60218D01*
X39815Y61028D01*
X40572Y61785D01*
X41382Y62487D01*
X42240Y63129D01*
X43141Y63708D01*
X44081Y64222D01*
X45056Y64667D01*
X46060Y65041D01*
X47088Y65343D01*
X48135Y65571D01*
X49196Y65724D01*
X50264Y65800D01*
X51336Y65800D01*
X52404Y65724D01*
X53465Y65571D01*
X54512Y65343D01*
X55540Y65041D01*
X56544Y64667D01*
X57519Y64222D01*
X58459Y63708D01*
X59360Y63129D01*
X60218Y62487D01*
X61028Y61785D01*
X61785Y61028D01*
X62487Y60218D01*
X63129Y59360D01*
X63708Y58459D01*
X64222Y57519D01*
X64667Y56544D01*
X65041Y55540D01*
X65343Y54512D01*
X65571Y53465D01*
X65724Y52404D01*
X65800Y51336D01*
X65800Y50264D01*
X65800Y1320264D02*
X65724Y1319196D01*
X65571Y1318135D01*
X65343Y1317088D01*
X65041Y1316060D01*
X64667Y1315056D01*
X64222Y1314081D01*
X63708Y1313141D01*
X63129Y1312240D01*
X62487Y1311382D01*
X61785Y1310572D01*
X61028Y1309815D01*
X60218Y1309113D01*
X59360Y1308471D01*
X58459Y1307892D01*
X57519Y1307378D01*
X56544Y1306933D01*
X55540Y1306559D01*
X54512Y1306257D01*
X53465Y1306029D01*
X52404Y1305876D01*
X51336Y1305800D01*
X50264Y1305800D01*
X49196Y1305876D01*
X48135Y1306029D01*
X47088Y1306257D01*
X46060Y1306559D01*
X45056Y1306933D01*
X44081Y1307378D01*
X43141Y1307892D01*
X42240Y1308471D01*
X41382Y1309113D01*
X40572Y1309815D01*
X39815Y1310572D01*
X39113Y1311382D01*
X38471Y1312240D01*
X37892Y1313141D01*
X37378Y1314081D01*
X36933Y1315056D01*
X36559Y1316060D01*
X36257Y1317088D01*
X36029Y1318135D01*
X35876Y1319196D01*
X35800Y1320264D01*
X35800Y1321336D01*
X35876Y1322404D01*
X36029Y1323465D01*
X36257Y1324512D01*
X36559Y1325540D01*
X36933Y1326544D01*
X37378Y1327519D01*
X37892Y1328459D01*
X38471Y1329360D01*
X39113Y1330218D01*
X39815Y1331028D01*
X40572Y1331785D01*
X41382Y1332487D01*
X42240Y1333129D01*
X43141Y1333708D01*
X44081Y1334222D01*
X45056Y1334667D01*
X46060Y1335041D01*
X47088Y1335343D01*
X48135Y1335571D01*
X49196Y1335724D01*
X50264Y1335800D01*
X51336Y1335800D01*
X52404Y1335724D01*
X53465Y1335571D01*
X54512Y1335343D01*
X55540Y1335041D01*
X56544Y1334667D01*
X57519Y1334222D01*
X58459Y1333708D01*
X59360Y1333129D01*
X60218Y1332487D01*
X61028Y1331785D01*
X61785Y1331028D01*
X62487Y1330218D01*
X63129Y1329360D01*
X63708Y1328459D01*
X64222Y1327519D01*
X64667Y1326544D01*
X65041Y1325540D01*
X65343Y1324512D01*
X65571Y1323465D01*
X65724Y1322404D01*
X65800Y1321336D01*
X65800Y1320264D01*
X1970800Y50264D02*
X1970724Y49196D01*
X1970571Y48135D01*
X1970343Y47088D01*
X1970041Y46060D01*
X1969667Y45056D01*
X1969222Y44081D01*
X1968708Y43141D01*
X1968129Y42240D01*
X1967487Y41382D01*
X1966785Y40572D01*
X1966028Y39815D01*
X1965218Y39113D01*
X1964360Y38471D01*
X1963459Y37892D01*
X1962519Y37378D01*
X1961544Y36933D01*
X1960540Y36559D01*
X1959512Y36257D01*
X1958465Y36029D01*
X1957404Y35876D01*
X1956336Y35800D01*
X1955264Y35800D01*
X1954196Y35876D01*
X1953135Y36029D01*
X1952088Y36257D01*
X1951060Y36559D01*
X1950056Y36933D01*
X1949081Y37378D01*
X1948141Y37892D01*
X1947240Y38471D01*
X1946382Y39113D01*
X1945572Y39815D01*
X1944815Y40572D01*
X1944113Y41382D01*
X1943471Y42240D01*
X1942892Y43141D01*
X1942378Y44081D01*
X1941933Y45056D01*
X1941559Y46060D01*
X1941257Y47088D01*
X1941029Y48135D01*
X1940876Y49196D01*
X1940800Y50264D01*
X1940800Y51336D01*
X1940876Y52404D01*
X1941029Y53465D01*
X1941257Y54512D01*
X1941559Y55540D01*
X1941933Y56544D01*
X1942378Y57519D01*
X1942892Y58459D01*
X1943471Y59360D01*
X1944113Y60218D01*
X1944815Y61028D01*
X1945572Y61785D01*
X1946382Y62487D01*
X1947240Y63129D01*
X1948141Y63708D01*
X1949081Y64222D01*
X1950056Y64667D01*
X1951060Y65041D01*
X1952088Y65343D01*
X1953135Y65571D01*
X1954196Y65724D01*
X1955264Y65800D01*
X1956336Y65800D01*
X1957404Y65724D01*
X1958465Y65571D01*
X1959512Y65343D01*
X1960540Y65041D01*
X1961544Y64667D01*
X1962519Y64222D01*
X1963459Y63708D01*
X1964360Y63129D01*
X1965218Y62487D01*
X1966028Y61785D01*
X1966785Y61028D01*
X1967487Y60218D01*
X1968129Y59360D01*
X1968708Y58459D01*
X1969222Y57519D01*
X1969667Y56544D01*
X1970041Y55540D01*
X1970343Y54512D01*
X1970571Y53465D01*
X1970724Y52404D01*
X1970800Y51336D01*
X1970800Y50264D01*
X1970800Y1320264D02*
X1970724Y1319196D01*
X1970571Y1318135D01*
X1970343Y1317088D01*
X1970041Y1316060D01*
X1969667Y1315056D01*
X1969222Y1314081D01*
X1968708Y1313141D01*
X1968129Y1312240D01*
X1967487Y1311382D01*
X1966785Y1310572D01*
X1966028Y1309815D01*
X1965218Y1309113D01*
X1964360Y1308471D01*
X1963459Y1307892D01*
X1962519Y1307378D01*
X1961544Y1306933D01*
X1960540Y1306559D01*
X1959512Y1306257D01*
X1958465Y1306029D01*
X1957404Y1305876D01*
X1956336Y1305800D01*
X1955264Y1305800D01*
X1954196Y1305876D01*
X1953135Y1306029D01*
X1952088Y1306257D01*
X1951060Y1306559D01*
X1950056Y1306933D01*
X1949081Y1307378D01*
X1948141Y1307892D01*
X1947240Y1308471D01*
X1946382Y1309113D01*
X1945572Y1309815D01*
X1944815Y1310572D01*
X1944113Y1311382D01*
X1943471Y1312240D01*
X1942892Y1313141D01*
X1942378Y1314081D01*
X1941933Y1315056D01*
X1941559Y1316060D01*
X1941257Y1317088D01*
X1941029Y1318135D01*
X1940876Y1319196D01*
X1940800Y1320264D01*
X1940800Y1321336D01*
X1940876Y1322404D01*
X1941029Y1323465D01*
X1941257Y1324512D01*
X1941559Y1325540D01*
X1941933Y1326544D01*
X1942378Y1327519D01*
X1942892Y1328459D01*
X1943471Y1329360D01*
X1944113Y1330218D01*
X1944815Y1331028D01*
X1945572Y1331785D01*
X1946382Y1332487D01*
X1947240Y1333129D01*
X1948141Y1333708D01*
X1949081Y1334222D01*
X1950056Y1334667D01*
X1951060Y1335041D01*
X1952088Y1335343D01*
X1953135Y1335571D01*
X1954196Y1335724D01*
X1955264Y1335800D01*
X1956336Y1335800D01*
X1957404Y1335724D01*
X1958465Y1335571D01*
X1959512Y1335343D01*
X1960540Y1335041D01*
X1961544Y1334667D01*
X1962519Y1334222D01*
X1963459Y1333708D01*
X1964360Y1333129D01*
X1965218Y1332487D01*
X1966028Y1331785D01*
X1966785Y1331028D01*
X1967487Y1330218D01*
X1968129Y1329360D01*
X1968708Y1328459D01*
X1969222Y1327519D01*
X1969667Y1326544D01*
X1970041Y1325540D01*
X1970343Y1324512D01*
X1970571Y1323465D01*
X1970724Y1322404D01*
X1970800Y1321336D01*
X1970800Y1320264D01*
M02*
