G04 EAGLE Gerber RS-274X export*
G75*
%MOMM*%
%FSLAX34Y34*%
%LPD*%
%INSoldermask Top*%
%IPPOS*%
%AMOC8*
5,1,8,0,0,1.08239X$1,22.5*%
G01*
%ADD10C,5.760719*%
%ADD11C,2.148837*%
%ADD12R,0.336000X1.556000*%
%ADD13R,1.556000X0.336000*%
%ADD14R,2.092963X0.670563*%
%ADD15R,2.179319X0.731519*%
%ADD16R,0.487681X1.808481*%
%ADD17R,1.808481X0.487681*%
%ADD18R,0.731519X2.179319*%
%ADD19R,0.960000X0.960000*%
%ADD20R,2.320000X0.720000*%
%ADD21R,1.240000X1.140000*%
%ADD22C,1.584963*%
%ADD23R,1.432562X0.670563*%
%ADD24R,1.440000X1.540000*%
%ADD25R,1.800000X2.050000*%
%ADD26R,1.860000X1.560000*%
%ADD27R,2.316481X4.704081*%
%ADD28P,1.958693X8X112.500000*%
%ADD29P,1.958693X8X202.500000*%
%ADD30C,3.600000*%
%ADD31R,0.720000X0.820000*%
%ADD32R,0.480000X0.780000*%
%ADD33R,0.820000X0.720000*%
%ADD34R,0.780000X0.480000*%
%ADD35C,2.040000*%
%ADD36C,0.762000*%
%ADD37C,0.914400*%
%ADD38C,1.828800*%
%ADD39C,0.785763*%
%ADD40C,0.822963*%
%ADD41C,0.254000*%


D10*
X1731569Y1256030D03*
X1481531Y1256030D03*
D11*
X1654479Y1230620D03*
X1631568Y1230620D03*
X1608658Y1230620D03*
X1585747Y1230620D03*
X1562836Y1230620D03*
X1646021Y1256030D03*
X1623110Y1256030D03*
X1600200Y1256030D03*
X1577289Y1256030D03*
X1554378Y1256030D03*
X1654479Y1281441D03*
X1631568Y1281441D03*
X1608658Y1281441D03*
X1585747Y1281441D03*
X1562836Y1281441D03*
D12*
G36*
X1489983Y956268D02*
X1487607Y958644D01*
X1498609Y969646D01*
X1500985Y967270D01*
X1489983Y956268D01*
G37*
G36*
X1493519Y952733D02*
X1491143Y955109D01*
X1502145Y966111D01*
X1504521Y963735D01*
X1493519Y952733D01*
G37*
G36*
X1497055Y949197D02*
X1494679Y951573D01*
X1505681Y962575D01*
X1508057Y960199D01*
X1497055Y949197D01*
G37*
G36*
X1500590Y945662D02*
X1498214Y948038D01*
X1509216Y959040D01*
X1511592Y956664D01*
X1500590Y945662D01*
G37*
G36*
X1504126Y942126D02*
X1501750Y944502D01*
X1512752Y955504D01*
X1515128Y953128D01*
X1504126Y942126D01*
G37*
G36*
X1507661Y938591D02*
X1505285Y940967D01*
X1516287Y951969D01*
X1518663Y949593D01*
X1507661Y938591D01*
G37*
G36*
X1511197Y935055D02*
X1508821Y937431D01*
X1519823Y948433D01*
X1522199Y946057D01*
X1511197Y935055D01*
G37*
G36*
X1514732Y931520D02*
X1512356Y933896D01*
X1523358Y944898D01*
X1525734Y942522D01*
X1514732Y931520D01*
G37*
G36*
X1518268Y927984D02*
X1515892Y930360D01*
X1526894Y941362D01*
X1529270Y938986D01*
X1518268Y927984D01*
G37*
G36*
X1521803Y924449D02*
X1519427Y926825D01*
X1530429Y937827D01*
X1532805Y935451D01*
X1521803Y924449D01*
G37*
G36*
X1525339Y920913D02*
X1522963Y923289D01*
X1533965Y934291D01*
X1536341Y931915D01*
X1525339Y920913D01*
G37*
G36*
X1528874Y917377D02*
X1526498Y919753D01*
X1537500Y930755D01*
X1539876Y928379D01*
X1528874Y917377D01*
G37*
D13*
G36*
X1558714Y917377D02*
X1547712Y928379D01*
X1550088Y930755D01*
X1561090Y919753D01*
X1558714Y917377D01*
G37*
G36*
X1562249Y920913D02*
X1551247Y931915D01*
X1553623Y934291D01*
X1564625Y923289D01*
X1562249Y920913D01*
G37*
G36*
X1565785Y924449D02*
X1554783Y935451D01*
X1557159Y937827D01*
X1568161Y926825D01*
X1565785Y924449D01*
G37*
G36*
X1569320Y927984D02*
X1558318Y938986D01*
X1560694Y941362D01*
X1571696Y930360D01*
X1569320Y927984D01*
G37*
G36*
X1572856Y931520D02*
X1561854Y942522D01*
X1564230Y944898D01*
X1575232Y933896D01*
X1572856Y931520D01*
G37*
G36*
X1576391Y935055D02*
X1565389Y946057D01*
X1567765Y948433D01*
X1578767Y937431D01*
X1576391Y935055D01*
G37*
G36*
X1579927Y938591D02*
X1568925Y949593D01*
X1571301Y951969D01*
X1582303Y940967D01*
X1579927Y938591D01*
G37*
G36*
X1583462Y942126D02*
X1572460Y953128D01*
X1574836Y955504D01*
X1585838Y944502D01*
X1583462Y942126D01*
G37*
G36*
X1586998Y945662D02*
X1575996Y956664D01*
X1578372Y959040D01*
X1589374Y948038D01*
X1586998Y945662D01*
G37*
G36*
X1590533Y949197D02*
X1579531Y960199D01*
X1581907Y962575D01*
X1592909Y951573D01*
X1590533Y949197D01*
G37*
G36*
X1594069Y952733D02*
X1583067Y963735D01*
X1585443Y966111D01*
X1596445Y955109D01*
X1594069Y952733D01*
G37*
G36*
X1597604Y956268D02*
X1586602Y967270D01*
X1588978Y969646D01*
X1599980Y958644D01*
X1597604Y956268D01*
G37*
D12*
G36*
X1588978Y977482D02*
X1586602Y979858D01*
X1597604Y990860D01*
X1599980Y988484D01*
X1588978Y977482D01*
G37*
G36*
X1585443Y981017D02*
X1583067Y983393D01*
X1594069Y994395D01*
X1596445Y992019D01*
X1585443Y981017D01*
G37*
G36*
X1581907Y984553D02*
X1579531Y986929D01*
X1590533Y997931D01*
X1592909Y995555D01*
X1581907Y984553D01*
G37*
G36*
X1578372Y988088D02*
X1575996Y990464D01*
X1586998Y1001466D01*
X1589374Y999090D01*
X1578372Y988088D01*
G37*
G36*
X1574836Y991624D02*
X1572460Y994000D01*
X1583462Y1005002D01*
X1585838Y1002626D01*
X1574836Y991624D01*
G37*
G36*
X1571301Y995159D02*
X1568925Y997535D01*
X1579927Y1008537D01*
X1582303Y1006161D01*
X1571301Y995159D01*
G37*
G36*
X1567765Y998695D02*
X1565389Y1001071D01*
X1576391Y1012073D01*
X1578767Y1009697D01*
X1567765Y998695D01*
G37*
G36*
X1564230Y1002230D02*
X1561854Y1004606D01*
X1572856Y1015608D01*
X1575232Y1013232D01*
X1564230Y1002230D01*
G37*
G36*
X1560694Y1005766D02*
X1558318Y1008142D01*
X1569320Y1019144D01*
X1571696Y1016768D01*
X1560694Y1005766D01*
G37*
G36*
X1557159Y1009301D02*
X1554783Y1011677D01*
X1565785Y1022679D01*
X1568161Y1020303D01*
X1557159Y1009301D01*
G37*
G36*
X1553623Y1012837D02*
X1551247Y1015213D01*
X1562249Y1026215D01*
X1564625Y1023839D01*
X1553623Y1012837D01*
G37*
G36*
X1550088Y1016372D02*
X1547712Y1018748D01*
X1558714Y1029750D01*
X1561090Y1027374D01*
X1550088Y1016372D01*
G37*
D13*
G36*
X1537500Y1016372D02*
X1526498Y1027374D01*
X1528874Y1029750D01*
X1539876Y1018748D01*
X1537500Y1016372D01*
G37*
G36*
X1533965Y1012837D02*
X1522963Y1023839D01*
X1525339Y1026215D01*
X1536341Y1015213D01*
X1533965Y1012837D01*
G37*
G36*
X1530429Y1009301D02*
X1519427Y1020303D01*
X1521803Y1022679D01*
X1532805Y1011677D01*
X1530429Y1009301D01*
G37*
G36*
X1526894Y1005766D02*
X1515892Y1016768D01*
X1518268Y1019144D01*
X1529270Y1008142D01*
X1526894Y1005766D01*
G37*
G36*
X1523358Y1002230D02*
X1512356Y1013232D01*
X1514732Y1015608D01*
X1525734Y1004606D01*
X1523358Y1002230D01*
G37*
G36*
X1519823Y998695D02*
X1508821Y1009697D01*
X1511197Y1012073D01*
X1522199Y1001071D01*
X1519823Y998695D01*
G37*
G36*
X1516287Y995159D02*
X1505285Y1006161D01*
X1507661Y1008537D01*
X1518663Y997535D01*
X1516287Y995159D01*
G37*
G36*
X1512752Y991624D02*
X1501750Y1002626D01*
X1504126Y1005002D01*
X1515128Y994000D01*
X1512752Y991624D01*
G37*
G36*
X1509216Y988088D02*
X1498214Y999090D01*
X1500590Y1001466D01*
X1511592Y990464D01*
X1509216Y988088D01*
G37*
G36*
X1505681Y984553D02*
X1494679Y995555D01*
X1497055Y997931D01*
X1508057Y986929D01*
X1505681Y984553D01*
G37*
G36*
X1502145Y981017D02*
X1491143Y992019D01*
X1493519Y994395D01*
X1504521Y983393D01*
X1502145Y981017D01*
G37*
G36*
X1498609Y977482D02*
X1487607Y988484D01*
X1489983Y990860D01*
X1500985Y979858D01*
X1498609Y977482D01*
G37*
D14*
X822452Y826770D03*
X822452Y814070D03*
X822452Y801370D03*
X822452Y788670D03*
X822452Y775970D03*
X822452Y763270D03*
X822452Y750570D03*
X871728Y750570D03*
X871728Y763270D03*
X871728Y775970D03*
X871728Y788670D03*
X871728Y801370D03*
X871728Y814070D03*
X871728Y826770D03*
D15*
X1769364Y461010D03*
X1769364Y448310D03*
X1769364Y435610D03*
X1769364Y422910D03*
X1769364Y410210D03*
X1769364Y397510D03*
X1769364Y384810D03*
X1769364Y372110D03*
X1817370Y372110D03*
X1817370Y384810D03*
X1817370Y397510D03*
X1817370Y410210D03*
X1817370Y422910D03*
X1817370Y435610D03*
X1817370Y448310D03*
X1817370Y461010D03*
X1874774Y461010D03*
X1874774Y448310D03*
X1874774Y435610D03*
X1874774Y422910D03*
X1874774Y410210D03*
X1874774Y397510D03*
X1874774Y384810D03*
X1874774Y372110D03*
X1922780Y372110D03*
X1922780Y384810D03*
X1922780Y397510D03*
X1922780Y410210D03*
X1922780Y422910D03*
X1922780Y435610D03*
X1922780Y448310D03*
X1922780Y461010D03*
D16*
X912622Y508000D03*
X906018Y508000D03*
X899922Y508000D03*
X893318Y508000D03*
X887222Y508000D03*
X880618Y508000D03*
X874522Y508000D03*
X867918Y508000D03*
X861822Y508000D03*
X855218Y508000D03*
X849122Y508000D03*
X842518Y508000D03*
X836422Y508000D03*
X829818Y508000D03*
X823722Y508000D03*
X817118Y508000D03*
X811022Y508000D03*
X804418Y508000D03*
X798322Y508000D03*
X791718Y508000D03*
X785622Y508000D03*
X779018Y508000D03*
X772922Y508000D03*
X766318Y508000D03*
X760222Y508000D03*
X753618Y508000D03*
X747522Y508000D03*
X740918Y508000D03*
X740918Y411480D03*
X747522Y411480D03*
X753618Y411480D03*
X760222Y411480D03*
X766318Y411480D03*
X772922Y411480D03*
X779018Y411480D03*
X785622Y411480D03*
X791718Y411480D03*
X798322Y411480D03*
X804418Y411480D03*
X811022Y411480D03*
X817118Y411480D03*
X823722Y411480D03*
X829818Y411480D03*
X836422Y411480D03*
X842518Y411480D03*
X849122Y411480D03*
X855218Y411480D03*
X861822Y411480D03*
X867918Y411480D03*
X874522Y411480D03*
X880618Y411480D03*
X887222Y411480D03*
X893318Y411480D03*
X899922Y411480D03*
X906018Y411480D03*
X912622Y411480D03*
D17*
X941070Y708152D03*
X941070Y701548D03*
X941070Y695452D03*
X941070Y688848D03*
X941070Y682752D03*
X941070Y676148D03*
X941070Y670052D03*
X941070Y663448D03*
X941070Y657352D03*
X941070Y650748D03*
X941070Y644652D03*
X941070Y638048D03*
X941070Y631952D03*
X941070Y625348D03*
X941070Y619252D03*
X941070Y612648D03*
X941070Y606552D03*
X941070Y599948D03*
X941070Y593852D03*
X941070Y587248D03*
X941070Y581152D03*
X941070Y574548D03*
X941070Y568452D03*
X941070Y561848D03*
X941070Y555752D03*
X941070Y549148D03*
X941070Y543052D03*
X941070Y536448D03*
X1037590Y536448D03*
X1037590Y543052D03*
X1037590Y549148D03*
X1037590Y555752D03*
X1037590Y561848D03*
X1037590Y568452D03*
X1037590Y574548D03*
X1037590Y581152D03*
X1037590Y587248D03*
X1037590Y593852D03*
X1037590Y599948D03*
X1037590Y606552D03*
X1037590Y612648D03*
X1037590Y619252D03*
X1037590Y625348D03*
X1037590Y631952D03*
X1037590Y638048D03*
X1037590Y644652D03*
X1037590Y650748D03*
X1037590Y657352D03*
X1037590Y663448D03*
X1037590Y670052D03*
X1037590Y676148D03*
X1037590Y682752D03*
X1037590Y688848D03*
X1037590Y695452D03*
X1037590Y701548D03*
X1037590Y708152D03*
X1037590Y211328D03*
X1037590Y217932D03*
X1037590Y224028D03*
X1037590Y230632D03*
X1037590Y236728D03*
X1037590Y243332D03*
X1037590Y249428D03*
X1037590Y256032D03*
X1037590Y262128D03*
X1037590Y268732D03*
X1037590Y274828D03*
X1037590Y281432D03*
X1037590Y287528D03*
X1037590Y294132D03*
X1037590Y300228D03*
X1037590Y306832D03*
X1037590Y312928D03*
X1037590Y319532D03*
X1037590Y325628D03*
X1037590Y332232D03*
X1037590Y338328D03*
X1037590Y344932D03*
X1037590Y351028D03*
X1037590Y357632D03*
X1037590Y363728D03*
X1037590Y370332D03*
X1037590Y376428D03*
X1037590Y383032D03*
X941070Y383032D03*
X941070Y376428D03*
X941070Y370332D03*
X941070Y363728D03*
X941070Y357632D03*
X941070Y351028D03*
X941070Y344932D03*
X941070Y338328D03*
X941070Y332232D03*
X941070Y325628D03*
X941070Y319532D03*
X941070Y312928D03*
X941070Y306832D03*
X941070Y300228D03*
X941070Y294132D03*
X941070Y287528D03*
X941070Y281432D03*
X941070Y274828D03*
X941070Y268732D03*
X941070Y262128D03*
X941070Y256032D03*
X941070Y249428D03*
X941070Y243332D03*
X941070Y236728D03*
X941070Y230632D03*
X941070Y224028D03*
X941070Y217932D03*
X941070Y211328D03*
D16*
X1066038Y411480D03*
X1072642Y411480D03*
X1078738Y411480D03*
X1085342Y411480D03*
X1091438Y411480D03*
X1098042Y411480D03*
X1104138Y411480D03*
X1110742Y411480D03*
X1116838Y411480D03*
X1123442Y411480D03*
X1129538Y411480D03*
X1136142Y411480D03*
X1142238Y411480D03*
X1148842Y411480D03*
X1154938Y411480D03*
X1161542Y411480D03*
X1167638Y411480D03*
X1174242Y411480D03*
X1180338Y411480D03*
X1186942Y411480D03*
X1193038Y411480D03*
X1199642Y411480D03*
X1205738Y411480D03*
X1212342Y411480D03*
X1218438Y411480D03*
X1225042Y411480D03*
X1231138Y411480D03*
X1237742Y411480D03*
X1237742Y508000D03*
X1231138Y508000D03*
X1225042Y508000D03*
X1218438Y508000D03*
X1212342Y508000D03*
X1205738Y508000D03*
X1199642Y508000D03*
X1193038Y508000D03*
X1186942Y508000D03*
X1180338Y508000D03*
X1174242Y508000D03*
X1167638Y508000D03*
X1161542Y508000D03*
X1154938Y508000D03*
X1148842Y508000D03*
X1142238Y508000D03*
X1136142Y508000D03*
X1129538Y508000D03*
X1123442Y508000D03*
X1116838Y508000D03*
X1110742Y508000D03*
X1104138Y508000D03*
X1098042Y508000D03*
X1091438Y508000D03*
X1085342Y508000D03*
X1078738Y508000D03*
X1072642Y508000D03*
X1066038Y508000D03*
D15*
X518414Y266700D03*
X518414Y254000D03*
X518414Y241300D03*
X518414Y228600D03*
X518414Y215900D03*
X518414Y203200D03*
X518414Y190500D03*
X518414Y177800D03*
X566420Y177800D03*
X566420Y190500D03*
X566420Y203200D03*
X566420Y215900D03*
X566420Y228600D03*
X566420Y241300D03*
X566420Y254000D03*
X566420Y266700D03*
X690626Y177800D03*
X690626Y190500D03*
X690626Y203200D03*
X690626Y215900D03*
X690626Y228600D03*
X690626Y241300D03*
X690626Y254000D03*
X690626Y266700D03*
X642620Y266700D03*
X642620Y254000D03*
X642620Y241300D03*
X642620Y228600D03*
X642620Y215900D03*
X642620Y203200D03*
X642620Y190500D03*
X642620Y177800D03*
X690626Y288290D03*
X690626Y300990D03*
X690626Y313690D03*
X690626Y326390D03*
X690626Y339090D03*
X690626Y351790D03*
X690626Y364490D03*
X690626Y377190D03*
X642620Y377190D03*
X642620Y364490D03*
X642620Y351790D03*
X642620Y339090D03*
X642620Y326390D03*
X642620Y313690D03*
X642620Y300990D03*
X642620Y288290D03*
X690626Y400050D03*
X690626Y412750D03*
X690626Y425450D03*
X690626Y438150D03*
X690626Y450850D03*
X690626Y463550D03*
X690626Y476250D03*
X690626Y488950D03*
X642620Y488950D03*
X642620Y476250D03*
X642620Y463550D03*
X642620Y450850D03*
X642620Y438150D03*
X642620Y425450D03*
X642620Y412750D03*
X642620Y400050D03*
X1390396Y529590D03*
X1390396Y542290D03*
X1390396Y554990D03*
X1390396Y567690D03*
X1390396Y580390D03*
X1390396Y593090D03*
X1390396Y605790D03*
X1390396Y618490D03*
X1342390Y618490D03*
X1342390Y605790D03*
X1342390Y593090D03*
X1342390Y580390D03*
X1342390Y567690D03*
X1342390Y554990D03*
X1342390Y542290D03*
X1342390Y529590D03*
X1390396Y638810D03*
X1390396Y651510D03*
X1390396Y664210D03*
X1390396Y676910D03*
X1390396Y689610D03*
X1390396Y702310D03*
X1390396Y715010D03*
X1390396Y727710D03*
X1342390Y727710D03*
X1342390Y715010D03*
X1342390Y702310D03*
X1342390Y689610D03*
X1342390Y676910D03*
X1342390Y664210D03*
X1342390Y651510D03*
X1342390Y638810D03*
D18*
X1328420Y794766D03*
X1315720Y794766D03*
X1303020Y794766D03*
X1290320Y794766D03*
X1277620Y794766D03*
X1264920Y794766D03*
X1252220Y794766D03*
X1239520Y794766D03*
X1239520Y746760D03*
X1252220Y746760D03*
X1264920Y746760D03*
X1277620Y746760D03*
X1290320Y746760D03*
X1303020Y746760D03*
X1315720Y746760D03*
X1328420Y746760D03*
X1219200Y794766D03*
X1206500Y794766D03*
X1193800Y794766D03*
X1181100Y794766D03*
X1168400Y794766D03*
X1155700Y794766D03*
X1143000Y794766D03*
X1130300Y794766D03*
X1130300Y746760D03*
X1143000Y746760D03*
X1155700Y746760D03*
X1168400Y746760D03*
X1181100Y746760D03*
X1193800Y746760D03*
X1206500Y746760D03*
X1219200Y746760D03*
X1109980Y794766D03*
X1097280Y794766D03*
X1084580Y794766D03*
X1071880Y794766D03*
X1059180Y794766D03*
X1046480Y794766D03*
X1033780Y794766D03*
X1021080Y794766D03*
X1021080Y746760D03*
X1033780Y746760D03*
X1046480Y746760D03*
X1059180Y746760D03*
X1071880Y746760D03*
X1084580Y746760D03*
X1097280Y746760D03*
X1109980Y746760D03*
D15*
X1636014Y835660D03*
X1636014Y822960D03*
X1636014Y810260D03*
X1636014Y797560D03*
X1636014Y784860D03*
X1636014Y772160D03*
X1636014Y759460D03*
X1636014Y746760D03*
X1684020Y746760D03*
X1684020Y759460D03*
X1684020Y772160D03*
X1684020Y784860D03*
X1684020Y797560D03*
X1684020Y810260D03*
X1684020Y822960D03*
X1684020Y835660D03*
X1636014Y721360D03*
X1636014Y708660D03*
X1636014Y695960D03*
X1636014Y683260D03*
X1636014Y670560D03*
X1636014Y657860D03*
X1636014Y645160D03*
X1636014Y632460D03*
X1684020Y632460D03*
X1684020Y645160D03*
X1684020Y657860D03*
X1684020Y670560D03*
X1684020Y683260D03*
X1684020Y695960D03*
X1684020Y708660D03*
X1684020Y721360D03*
X1636014Y607060D03*
X1636014Y594360D03*
X1636014Y581660D03*
X1636014Y568960D03*
X1636014Y556260D03*
X1636014Y543560D03*
X1636014Y530860D03*
X1636014Y518160D03*
X1684020Y518160D03*
X1684020Y530860D03*
X1684020Y543560D03*
X1684020Y556260D03*
X1684020Y568960D03*
X1684020Y581660D03*
X1684020Y594360D03*
X1684020Y607060D03*
X1636014Y344170D03*
X1636014Y331470D03*
X1636014Y318770D03*
X1636014Y306070D03*
X1636014Y293370D03*
X1636014Y280670D03*
X1636014Y267970D03*
X1636014Y255270D03*
X1684020Y255270D03*
X1684020Y267970D03*
X1684020Y280670D03*
X1684020Y293370D03*
X1684020Y306070D03*
X1684020Y318770D03*
X1684020Y331470D03*
X1684020Y344170D03*
X1636014Y229870D03*
X1636014Y217170D03*
X1636014Y204470D03*
X1636014Y191770D03*
X1636014Y179070D03*
X1636014Y166370D03*
X1636014Y153670D03*
X1636014Y140970D03*
X1684020Y140970D03*
X1684020Y153670D03*
X1684020Y166370D03*
X1684020Y179070D03*
X1684020Y191770D03*
X1684020Y204470D03*
X1684020Y217170D03*
X1684020Y229870D03*
X1636014Y115570D03*
X1636014Y102870D03*
X1636014Y90170D03*
X1636014Y77470D03*
X1636014Y64770D03*
X1636014Y52070D03*
X1636014Y39370D03*
X1636014Y26670D03*
X1684020Y26670D03*
X1684020Y39370D03*
X1684020Y52070D03*
X1684020Y64770D03*
X1684020Y77470D03*
X1684020Y90170D03*
X1684020Y102870D03*
X1684020Y115570D03*
D19*
X1540510Y1112520D03*
X1525270Y1112520D03*
X1685290Y481330D03*
X1685290Y466090D03*
X594360Y722630D03*
X579120Y722630D03*
X594360Y706120D03*
X579120Y706120D03*
X585470Y604520D03*
X600710Y604520D03*
X585470Y621030D03*
X600710Y621030D03*
X1384300Y198120D03*
X1399540Y198120D03*
X1384300Y214630D03*
X1399540Y214630D03*
X1394460Y316230D03*
X1379220Y316230D03*
X1394460Y299720D03*
X1379220Y299720D03*
X514350Y551180D03*
X514350Y535940D03*
X497840Y551180D03*
X497840Y535940D03*
X1021080Y845820D03*
X1021080Y861060D03*
X1037590Y845820D03*
X1037590Y861060D03*
X1322070Y514350D03*
X1322070Y529590D03*
X1305560Y514350D03*
X1305560Y529590D03*
X1356360Y762000D03*
X1356360Y746760D03*
X1372870Y762000D03*
X1372870Y746760D03*
X1715770Y821690D03*
X1715770Y836930D03*
X1732280Y821690D03*
X1732280Y836930D03*
X1705610Y736600D03*
X1705610Y721360D03*
X1722120Y736600D03*
X1722120Y721360D03*
X1705610Y622300D03*
X1705610Y607060D03*
X1722120Y622300D03*
X1722120Y607060D03*
X1717040Y330200D03*
X1717040Y345440D03*
X1733550Y330200D03*
X1733550Y345440D03*
X1705610Y245110D03*
X1705610Y229870D03*
X1722120Y245110D03*
X1722120Y229870D03*
X1705610Y130810D03*
X1705610Y115570D03*
X1722120Y130810D03*
X1722120Y115570D03*
X1508760Y1079500D03*
X1493520Y1079500D03*
X1569720Y1188720D03*
X1554480Y1188720D03*
X1601470Y1188720D03*
X1586230Y1188720D03*
X1633220Y1188720D03*
X1617980Y1188720D03*
D20*
X1636430Y422910D03*
X1688430Y422910D03*
X1636430Y435610D03*
X1636430Y410210D03*
X1636430Y397510D03*
X1688430Y435610D03*
X1688430Y410210D03*
X1688430Y397510D03*
D21*
X1666600Y480960D03*
X1648100Y480960D03*
X1648100Y466460D03*
X1666600Y466460D03*
D19*
X1540510Y1096010D03*
X1525270Y1096010D03*
D22*
X1758696Y318770D02*
X1771904Y318770D01*
X1771904Y293370D02*
X1758696Y293370D01*
X1758696Y267970D02*
X1771904Y267970D01*
X1771904Y242570D02*
X1758696Y242570D01*
X1758696Y217170D02*
X1771904Y217170D01*
X1771904Y191770D02*
X1758696Y191770D01*
X1758696Y166370D02*
X1771904Y166370D01*
X1771904Y140970D02*
X1758696Y140970D01*
X1758696Y115570D02*
X1771904Y115570D01*
X1771904Y90170D02*
X1758696Y90170D01*
X1758696Y64770D02*
X1771904Y64770D01*
X1771904Y39370D02*
X1758696Y39370D01*
X1834896Y39370D02*
X1848104Y39370D01*
X1848104Y64770D02*
X1834896Y64770D01*
X1834896Y90170D02*
X1848104Y90170D01*
X1848104Y115570D02*
X1834896Y115570D01*
X1834896Y140970D02*
X1848104Y140970D01*
X1848104Y166370D02*
X1834896Y166370D01*
X1834896Y191770D02*
X1848104Y191770D01*
X1848104Y217170D02*
X1834896Y217170D01*
X1834896Y242570D02*
X1848104Y242570D01*
X1848104Y267970D02*
X1834896Y267970D01*
X1834896Y293370D02*
X1848104Y293370D01*
X1848104Y318770D02*
X1834896Y318770D01*
X1771904Y810260D02*
X1758696Y810260D01*
X1758696Y784860D02*
X1771904Y784860D01*
X1771904Y759460D02*
X1758696Y759460D01*
X1758696Y734060D02*
X1771904Y734060D01*
X1771904Y708660D02*
X1758696Y708660D01*
X1758696Y683260D02*
X1771904Y683260D01*
X1771904Y657860D02*
X1758696Y657860D01*
X1758696Y632460D02*
X1771904Y632460D01*
X1771904Y607060D02*
X1758696Y607060D01*
X1758696Y581660D02*
X1771904Y581660D01*
X1771904Y556260D02*
X1758696Y556260D01*
X1758696Y530860D02*
X1771904Y530860D01*
X1834896Y530860D02*
X1848104Y530860D01*
X1848104Y556260D02*
X1834896Y556260D01*
X1834896Y581660D02*
X1848104Y581660D01*
X1848104Y607060D02*
X1834896Y607060D01*
X1834896Y632460D02*
X1848104Y632460D01*
X1848104Y657860D02*
X1834896Y657860D01*
X1834896Y683260D02*
X1848104Y683260D01*
X1848104Y708660D02*
X1834896Y708660D01*
X1834896Y734060D02*
X1848104Y734060D01*
X1848104Y759460D02*
X1834896Y759460D01*
X1834896Y784860D02*
X1848104Y784860D01*
X1848104Y810260D02*
X1834896Y810260D01*
D19*
X1715770Y408940D03*
X1715770Y424180D03*
X1084580Y834390D03*
X1084580Y819150D03*
X1654810Y864870D03*
X1639570Y864870D03*
D15*
X566166Y336550D03*
X566166Y349250D03*
X566166Y361950D03*
X566166Y374650D03*
X566166Y387350D03*
X566166Y400050D03*
X566166Y412750D03*
X566166Y425450D03*
X518160Y425450D03*
X518160Y412750D03*
X518160Y400050D03*
X518160Y387350D03*
X518160Y374650D03*
X518160Y361950D03*
X518160Y349250D03*
X518160Y336550D03*
D19*
X1068070Y819150D03*
X1068070Y834390D03*
X1686560Y864870D03*
X1671320Y864870D03*
X584200Y158750D03*
X568960Y158750D03*
X537210Y158750D03*
X552450Y158750D03*
D23*
X1537462Y1045972D03*
X1537462Y1064768D03*
X1515618Y1055370D03*
D19*
X1525270Y1079500D03*
X1540510Y1079500D03*
X1866900Y303530D03*
X1866900Y318770D03*
X1883410Y303530D03*
X1883410Y318770D03*
X1866900Y795020D03*
X1866900Y810260D03*
X1883410Y795020D03*
X1883410Y810260D03*
X892810Y811530D03*
X892810Y826770D03*
X909320Y811530D03*
X909320Y826770D03*
X1626870Y971550D03*
X1611630Y971550D03*
X1658620Y971550D03*
X1643380Y971550D03*
D24*
X322580Y1233170D03*
X302260Y1233170D03*
D25*
X322580Y1148380D03*
X322580Y1185880D03*
D26*
X322580Y1093470D03*
X322580Y1123950D03*
D27*
X233680Y1196340D03*
X233680Y1099820D03*
D28*
X309880Y365760D03*
X309880Y391160D03*
X309880Y416560D03*
X309880Y441960D03*
D29*
X309880Y467360D03*
D28*
X309880Y492760D03*
X309880Y518160D03*
X309880Y543560D03*
X309880Y568960D03*
X309880Y594360D03*
X309880Y619760D03*
X309880Y645160D03*
X309880Y670560D03*
X309880Y695960D03*
X309880Y721360D03*
X309880Y746760D03*
X309880Y772160D03*
X309880Y797560D03*
X309880Y822960D03*
X309880Y848360D03*
X309880Y873760D03*
X309880Y899160D03*
X309880Y924560D03*
X309880Y949960D03*
D29*
X309880Y975360D03*
D28*
X309880Y1000760D03*
X309880Y1026160D03*
X81280Y365760D03*
X81280Y391160D03*
X81280Y416560D03*
X81280Y441960D03*
D29*
X81280Y467360D03*
D28*
X81280Y492760D03*
X81280Y518160D03*
X81280Y543560D03*
X81280Y568960D03*
X81280Y594360D03*
X81280Y619760D03*
X81280Y645160D03*
X81280Y670560D03*
X81280Y695960D03*
X81280Y721360D03*
X81280Y746760D03*
X81280Y772160D03*
X81280Y797560D03*
X81280Y822960D03*
X81280Y848360D03*
X81280Y873760D03*
X81280Y899160D03*
X81280Y924560D03*
X81280Y949960D03*
D29*
X81280Y975360D03*
D28*
X81280Y1000760D03*
X81280Y1026160D03*
X278130Y949960D03*
X278130Y975360D03*
X278130Y1000760D03*
X278130Y1026160D03*
X252730Y975360D03*
X252730Y1000760D03*
X252730Y1026160D03*
X227330Y975360D03*
X227330Y1000760D03*
X227330Y1026160D03*
X201930Y975360D03*
X201930Y1000760D03*
X201930Y1026160D03*
X176530Y975360D03*
X176530Y1000760D03*
X176530Y1026160D03*
X151130Y975360D03*
X151130Y1000760D03*
X151130Y1026160D03*
D24*
X302260Y1273810D03*
X322580Y1273810D03*
D30*
X50800Y50800D03*
X50800Y1320800D03*
X1955800Y50800D03*
X1955800Y1320800D03*
D31*
X1896230Y539910D03*
D32*
X1903730Y539910D03*
D31*
X1911230Y539910D03*
X1911230Y558410D03*
X1896230Y558410D03*
D33*
X1187610Y196730D03*
D34*
X1187610Y189230D03*
D33*
X1187610Y181730D03*
X1206110Y181730D03*
X1206110Y196730D03*
X561180Y449700D03*
D34*
X561180Y457200D03*
D33*
X561180Y464700D03*
X542680Y464700D03*
X542680Y449700D03*
D35*
X115180Y1146340D02*
X98180Y1146340D01*
X98180Y1196340D02*
X115180Y1196340D01*
X115180Y1246340D02*
X98180Y1246340D01*
D36*
X893318Y396518D03*
X849122Y396264D03*
X1085342Y522200D03*
X1129538Y522200D03*
X1174242Y522200D03*
X1218438Y522200D03*
D37*
X706985Y266700D03*
X626261Y321310D03*
X706985Y377190D03*
X706985Y488950D03*
D36*
X927632Y230632D03*
X927632Y274828D03*
X927632Y319532D03*
X927632Y363728D03*
X760222Y396240D03*
X804418Y396240D03*
X1052806Y319532D03*
X1218438Y398042D03*
X1174242Y398042D03*
X1129538Y398042D03*
X1085342Y398042D03*
X1052830Y230632D03*
X1052830Y274828D03*
X927378Y555752D03*
X927124Y599948D03*
X760222Y521438D03*
X804418Y521438D03*
X849122Y521438D03*
X893318Y521438D03*
X927100Y688848D03*
X927100Y644652D03*
X1051028Y644652D03*
X1051028Y599948D03*
X1051028Y555752D03*
D37*
X1407160Y618490D03*
X1243330Y812800D03*
X1130300Y812800D03*
X1021080Y812800D03*
X1407160Y727710D03*
X1290320Y812800D03*
X1181100Y812800D03*
X924560Y165862D03*
X624840Y215900D03*
X582930Y232410D03*
X518160Y166370D03*
X622300Y438150D03*
X400050Y396240D03*
X1177798Y180594D03*
X581660Y590550D03*
X560070Y736600D03*
X593090Y736600D03*
X1459230Y396240D03*
X923290Y975614D03*
X1386840Y182880D03*
X1397000Y330200D03*
X1419860Y182880D03*
D36*
X1052322Y689102D03*
D37*
X1617980Y26670D03*
X1617980Y52070D03*
X1617980Y140970D03*
X1617980Y191770D03*
X1617980Y255270D03*
X1617980Y306070D03*
X1617980Y518160D03*
X1617980Y746760D03*
X1617980Y797560D03*
X1697990Y481330D03*
X1728470Y408940D03*
X1858010Y372110D03*
X1752600Y372110D03*
X582930Y361950D03*
X565404Y479806D03*
X805180Y750570D03*
X1617980Y543560D03*
X1052830Y811530D03*
D36*
X1053338Y364236D03*
D37*
X528320Y551180D03*
X566166Y438658D03*
X1617980Y683260D03*
X1291590Y514350D03*
X1617980Y632460D03*
X1672590Y971550D03*
X1558290Y567690D03*
X1700530Y864870D03*
X1922780Y488950D03*
X923290Y811530D03*
X1897380Y303530D03*
X1897380Y795020D03*
X1407160Y580390D03*
X1736090Y736600D03*
X1746250Y821690D03*
X1736090Y622300D03*
X1087120Y36830D03*
X1817370Y487680D03*
X1747520Y330200D03*
X1736090Y245110D03*
X1736090Y130810D03*
D38*
X233680Y1065530D03*
X153440Y1099820D03*
D37*
X533400Y325120D03*
X1051560Y845820D03*
X1407160Y689610D03*
X1325880Y623570D03*
X1235710Y728980D03*
X1125220Y728980D03*
X1342390Y762000D03*
X341630Y1093470D03*
X1921510Y539750D03*
D39*
X750570Y698500D03*
D37*
X759357Y689713D03*
X768350Y680720D03*
X777240Y671830D03*
X786130Y662940D03*
X795020Y654050D03*
X803910Y645160D03*
X812800Y636270D03*
X820420Y628650D03*
X828040Y621030D03*
X842010Y607060D03*
X849630Y599440D03*
X857250Y591820D03*
X864870Y584200D03*
X873760Y575310D03*
X882650Y566420D03*
X891540Y557530D03*
X900339Y548731D03*
X909320Y539750D03*
X1228090Y220980D03*
X1219303Y229767D03*
X1210310Y238760D03*
X1201420Y247650D03*
X1192530Y256540D03*
X1183640Y265430D03*
X1174750Y274320D03*
X1165860Y283210D03*
X1158240Y290830D03*
X1150620Y298450D03*
X1137920Y311150D03*
X1130300Y318770D03*
X1122680Y326390D03*
X1113790Y335280D03*
X1104900Y344170D03*
X1096010Y353060D03*
X1087120Y361950D03*
X1078321Y370749D03*
X1069340Y379730D03*
X1530350Y74930D03*
X1412240Y173990D03*
X1521460Y83820D03*
X1403350Y165100D03*
X1512570Y92710D03*
X1390650Y161290D03*
X1503680Y101600D03*
X1376680Y161290D03*
X1367790Y355600D03*
X1494790Y110490D03*
X1381760Y345440D03*
X1485900Y119380D03*
X1399540Y342900D03*
X1477010Y128270D03*
X1410970Y349250D03*
X1468120Y137160D03*
X567690Y746760D03*
X488950Y871220D03*
X576580Y755650D03*
X499110Y862330D03*
X595630Y749300D03*
X509270Y853440D03*
X596900Y759460D03*
X519430Y844550D03*
X605790Y571500D03*
X529590Y835660D03*
X595630Y577850D03*
X539750Y826770D03*
X574040Y572770D03*
X549910Y817880D03*
X565150Y581660D03*
X558800Y808990D03*
X730250Y502920D03*
X1248410Y502920D03*
X1055370Y502920D03*
X924052Y502920D03*
X1405890Y368300D03*
X1560830Y523240D03*
X558673Y590550D03*
X1035050Y201168D03*
X1033780Y393700D03*
X1033780Y525780D03*
X944880Y525780D03*
X798830Y775970D03*
X919480Y715010D03*
X558800Y513080D03*
X1051560Y873760D03*
X918210Y530860D03*
X1060450Y388620D03*
X1635506Y846836D03*
X1617980Y730250D03*
X1617980Y615950D03*
X1617980Y325120D03*
X1617980Y210820D03*
X1617980Y102870D03*
X1117600Y812800D03*
X1226820Y812800D03*
X1337310Y811530D03*
X1407160Y632460D03*
X1410970Y520700D03*
D36*
X1104138Y522200D03*
X1199642Y522200D03*
X874522Y396518D03*
D37*
X624991Y177800D03*
D36*
X927632Y249428D03*
X927632Y344932D03*
X779018Y396240D03*
X1052552Y344932D03*
X1199642Y398042D03*
X1104138Y398042D03*
X1052830Y249428D03*
X927378Y574548D03*
X779018Y521438D03*
X874522Y521438D03*
X927100Y670052D03*
X1051028Y670052D03*
X1051028Y574548D03*
D37*
X1325880Y605790D03*
X1325880Y638810D03*
X1407160Y605790D03*
X1021080Y728980D03*
X1109980Y728980D03*
X1223010Y728980D03*
X566420Y278130D03*
X626364Y288290D03*
X626110Y400050D03*
X514350Y521970D03*
X593090Y590550D03*
X581660Y736600D03*
X1051560Y861060D03*
X1397000Y182880D03*
X1385570Y330200D03*
X1701800Y26670D03*
X1617980Y267970D03*
X1617980Y759460D03*
X1728470Y424180D03*
X1817370Y472440D03*
X1833880Y397510D03*
X1922780Y473710D03*
X582930Y349250D03*
X518160Y325120D03*
X1752600Y410210D03*
X1858010Y410210D03*
X924814Y51562D03*
X805180Y788670D03*
X1291590Y529590D03*
X923290Y826770D03*
X1897380Y318770D03*
X1897380Y810260D03*
X1573530Y567690D03*
X1703070Y518160D03*
X1736090Y721360D03*
X1746250Y836930D03*
X1736090Y607060D03*
X1087120Y52070D03*
X1747520Y345440D03*
X1736090Y229870D03*
X1736090Y115570D03*
D38*
X233680Y1233170D03*
X172720Y1196340D03*
D37*
X1939290Y397510D03*
X1697990Y466090D03*
X1342390Y746760D03*
X341122Y1186180D03*
X1216660Y196850D03*
X532130Y449580D03*
X1896110Y568960D03*
X600964Y204470D03*
X585470Y387350D03*
X440690Y101600D03*
X449580Y110490D03*
X458470Y119380D03*
X467360Y128270D03*
X476250Y137160D03*
X485140Y146050D03*
X494030Y154940D03*
X502920Y163830D03*
X713740Y177800D03*
X759357Y229767D03*
X713740Y190500D03*
X768350Y238760D03*
X713740Y203200D03*
X777240Y247650D03*
X713740Y215900D03*
X786130Y256540D03*
X713740Y228600D03*
X795020Y265430D03*
X713740Y241300D03*
X803910Y274320D03*
X713740Y254000D03*
X812800Y283210D03*
X713740Y276860D03*
X821690Y292100D03*
X713740Y288290D03*
X830580Y300990D03*
X713740Y300990D03*
X839470Y309880D03*
X713740Y313690D03*
X847090Y317500D03*
X713740Y326390D03*
X855980Y326390D03*
X713740Y339090D03*
X864870Y335280D03*
X713740Y351790D03*
X873760Y344170D03*
X713740Y364490D03*
X882650Y353060D03*
X713740Y386080D03*
X891540Y361950D03*
X713740Y398780D03*
X900339Y370749D03*
X713740Y412750D03*
X909320Y379730D03*
X626110Y257810D03*
X624840Y368300D03*
X613410Y245110D03*
X613410Y351790D03*
X610870Y478790D03*
X582930Y186690D03*
X1464310Y892810D03*
X1569720Y911860D03*
X1584960Y911860D03*
X1600200Y911860D03*
X1615440Y911860D03*
X1454150Y882650D03*
X1577340Y904240D03*
X1592580Y904240D03*
X1607820Y904240D03*
X1623060Y904240D03*
X1490980Y935990D03*
X1506220Y920750D03*
X1443990Y872490D03*
X1506220Y910590D03*
X1490980Y925830D03*
X1475740Y941070D03*
X1433830Y862330D03*
X1516380Y905510D03*
X1490980Y915670D03*
X1475740Y930910D03*
X1423670Y852170D03*
X1484630Y1024890D03*
X1484630Y1002030D03*
X1413510Y842010D03*
X1477518Y994156D03*
X1477518Y1039876D03*
X1477518Y1017270D03*
X1403350Y831850D03*
X1469898Y986536D03*
X1469898Y1032256D03*
X1469898Y1009650D03*
X1393190Y821690D03*
X1639570Y891540D03*
X1529080Y905510D03*
X805180Y814070D03*
X703580Y814070D03*
X1534160Y1198880D03*
X1676400Y1198880D03*
X839470Y994410D03*
X1939290Y435610D03*
X1833880Y422910D03*
X1833880Y435610D03*
X1060450Y530860D03*
X1046480Y720090D03*
X1069340Y539750D03*
X1059180Y720090D03*
X1078321Y548731D03*
X1071880Y720090D03*
X1087120Y557530D03*
X1084580Y720090D03*
X1096010Y566420D03*
X1155700Y720090D03*
X1104900Y575310D03*
X1168400Y720090D03*
X1113790Y584200D03*
X1181100Y720090D03*
X1122680Y593090D03*
X1193800Y720090D03*
X1131570Y601980D03*
X1264920Y720090D03*
X1139190Y609600D03*
X1277620Y720090D03*
X1148080Y618490D03*
X1290320Y720090D03*
X1156970Y627380D03*
X1303020Y720090D03*
X1165860Y636270D03*
X1240790Y645160D03*
X1174750Y645160D03*
X1249680Y637540D03*
X1183640Y654050D03*
X1258570Y628650D03*
X1192530Y662940D03*
X1267460Y637540D03*
X1201420Y671830D03*
X1276350Y628650D03*
X1210310Y680720D03*
X1285240Y601980D03*
X1219303Y689713D03*
X1294130Y576580D03*
X1268222Y690372D03*
X1303020Y558800D03*
X713740Y425450D03*
X918210Y388620D03*
X582930Y173990D03*
X624840Y203200D03*
X1407160Y715010D03*
X1325880Y711200D03*
D40*
X1323340Y544830D03*
D37*
X1258570Y812800D03*
X1248410Y728980D03*
D40*
X1311910Y651510D03*
D37*
X1143000Y812800D03*
X1143000Y728980D03*
X1315720Y727710D03*
X1206500Y721360D03*
X1033780Y728980D03*
X1033780Y812800D03*
X1617980Y645160D03*
X1701800Y645160D03*
X1701800Y822960D03*
X1617980Y530860D03*
X1703070Y530860D03*
X1722120Y704850D03*
X1617980Y153670D03*
X1701800Y153670D03*
X1701800Y331470D03*
X1706880Y39370D03*
X1718310Y213360D03*
X1617980Y39370D03*
X608330Y759460D03*
X537210Y478790D03*
X1264920Y162560D03*
X1858010Y448310D03*
X1858010Y435610D03*
X1939290Y422910D03*
X615950Y326390D03*
X622300Y450850D03*
X622300Y488696D03*
X603250Y241300D03*
X604520Y215900D03*
X582930Y374650D03*
X532130Y464820D03*
X1525270Y1126490D03*
D38*
X345440Y1233170D03*
D37*
X1545590Y916940D03*
X1512570Y1033780D03*
X1587500Y1009650D03*
X1508760Y1065530D03*
X1569720Y1174750D03*
X1601470Y1174750D03*
X1633220Y1174750D03*
D38*
X345440Y1273810D03*
D37*
X1558290Y911860D03*
X1515110Y1023620D03*
X1591310Y1019810D03*
X1577340Y1033780D03*
X1479550Y956310D03*
X1605280Y990600D03*
D41*
X0Y0D02*
X2006600Y0D01*
X2006600Y1371600D01*
X0Y1371600D01*
X0Y0D01*
M02*
