G04 EAGLE Gerber RS-274X export*
G75*
%MOMM*%
%FSLAX34Y34*%
%LPD*%
%INSolderpaste Top*%
%IPPOS*%
%AMOC8*
5,1,8,0,0,1.08239X$1,22.5*%
G01*
%ADD10R,0.280000X1.500000*%
%ADD11R,1.500000X0.280000*%
%ADD12R,1.981200X0.558800*%
%ADD13R,2.057400X0.609600*%
%ADD14R,0.406400X1.727200*%
%ADD15R,1.727200X0.406400*%
%ADD16R,0.609600X2.057400*%
%ADD17R,0.800000X0.800000*%
%ADD18R,2.200000X0.600000*%
%ADD19R,1.050000X0.950000*%
%ADD20R,1.320800X0.558800*%
%ADD21R,1.200000X1.300000*%
%ADD22R,1.500000X1.750000*%
%ADD23R,1.600000X1.300000*%
%ADD24R,1.930400X4.318000*%
%ADD25R,0.600000X0.700000*%
%ADD26R,0.400000X0.700000*%
%ADD27R,0.700000X0.600000*%
%ADD28R,0.700000X0.400000*%
%ADD29C,0.254000*%


D10*
G36*
X1489983Y956664D02*
X1488003Y958644D01*
X1498609Y969250D01*
X1500589Y967270D01*
X1489983Y956664D01*
G37*
G36*
X1493519Y953129D02*
X1491539Y955109D01*
X1502145Y965715D01*
X1504125Y963735D01*
X1493519Y953129D01*
G37*
G36*
X1497055Y949593D02*
X1495075Y951573D01*
X1505681Y962179D01*
X1507661Y960199D01*
X1497055Y949593D01*
G37*
G36*
X1500590Y946058D02*
X1498610Y948038D01*
X1509216Y958644D01*
X1511196Y956664D01*
X1500590Y946058D01*
G37*
G36*
X1504126Y942522D02*
X1502146Y944502D01*
X1512752Y955108D01*
X1514732Y953128D01*
X1504126Y942522D01*
G37*
G36*
X1507661Y938987D02*
X1505681Y940967D01*
X1516287Y951573D01*
X1518267Y949593D01*
X1507661Y938987D01*
G37*
G36*
X1511197Y935451D02*
X1509217Y937431D01*
X1519823Y948037D01*
X1521803Y946057D01*
X1511197Y935451D01*
G37*
G36*
X1514732Y931916D02*
X1512752Y933896D01*
X1523358Y944502D01*
X1525338Y942522D01*
X1514732Y931916D01*
G37*
G36*
X1518268Y928380D02*
X1516288Y930360D01*
X1526894Y940966D01*
X1528874Y938986D01*
X1518268Y928380D01*
G37*
G36*
X1521803Y924845D02*
X1519823Y926825D01*
X1530429Y937431D01*
X1532409Y935451D01*
X1521803Y924845D01*
G37*
G36*
X1525339Y921309D02*
X1523359Y923289D01*
X1533965Y933895D01*
X1535945Y931915D01*
X1525339Y921309D01*
G37*
G36*
X1528874Y917773D02*
X1526894Y919753D01*
X1537500Y930359D01*
X1539480Y928379D01*
X1528874Y917773D01*
G37*
D11*
G36*
X1558714Y917773D02*
X1548108Y928379D01*
X1550088Y930359D01*
X1560694Y919753D01*
X1558714Y917773D01*
G37*
G36*
X1562249Y921309D02*
X1551643Y931915D01*
X1553623Y933895D01*
X1564229Y923289D01*
X1562249Y921309D01*
G37*
G36*
X1565785Y924845D02*
X1555179Y935451D01*
X1557159Y937431D01*
X1567765Y926825D01*
X1565785Y924845D01*
G37*
G36*
X1569320Y928380D02*
X1558714Y938986D01*
X1560694Y940966D01*
X1571300Y930360D01*
X1569320Y928380D01*
G37*
G36*
X1572856Y931916D02*
X1562250Y942522D01*
X1564230Y944502D01*
X1574836Y933896D01*
X1572856Y931916D01*
G37*
G36*
X1576391Y935451D02*
X1565785Y946057D01*
X1567765Y948037D01*
X1578371Y937431D01*
X1576391Y935451D01*
G37*
G36*
X1579927Y938987D02*
X1569321Y949593D01*
X1571301Y951573D01*
X1581907Y940967D01*
X1579927Y938987D01*
G37*
G36*
X1583462Y942522D02*
X1572856Y953128D01*
X1574836Y955108D01*
X1585442Y944502D01*
X1583462Y942522D01*
G37*
G36*
X1586998Y946058D02*
X1576392Y956664D01*
X1578372Y958644D01*
X1588978Y948038D01*
X1586998Y946058D01*
G37*
G36*
X1590533Y949593D02*
X1579927Y960199D01*
X1581907Y962179D01*
X1592513Y951573D01*
X1590533Y949593D01*
G37*
G36*
X1594069Y953129D02*
X1583463Y963735D01*
X1585443Y965715D01*
X1596049Y955109D01*
X1594069Y953129D01*
G37*
G36*
X1597604Y956664D02*
X1586998Y967270D01*
X1588978Y969250D01*
X1599584Y958644D01*
X1597604Y956664D01*
G37*
D10*
G36*
X1588978Y977878D02*
X1586998Y979858D01*
X1597604Y990464D01*
X1599584Y988484D01*
X1588978Y977878D01*
G37*
G36*
X1585443Y981413D02*
X1583463Y983393D01*
X1594069Y993999D01*
X1596049Y992019D01*
X1585443Y981413D01*
G37*
G36*
X1581907Y984949D02*
X1579927Y986929D01*
X1590533Y997535D01*
X1592513Y995555D01*
X1581907Y984949D01*
G37*
G36*
X1578372Y988484D02*
X1576392Y990464D01*
X1586998Y1001070D01*
X1588978Y999090D01*
X1578372Y988484D01*
G37*
G36*
X1574836Y992020D02*
X1572856Y994000D01*
X1583462Y1004606D01*
X1585442Y1002626D01*
X1574836Y992020D01*
G37*
G36*
X1571301Y995555D02*
X1569321Y997535D01*
X1579927Y1008141D01*
X1581907Y1006161D01*
X1571301Y995555D01*
G37*
G36*
X1567765Y999091D02*
X1565785Y1001071D01*
X1576391Y1011677D01*
X1578371Y1009697D01*
X1567765Y999091D01*
G37*
G36*
X1564230Y1002626D02*
X1562250Y1004606D01*
X1572856Y1015212D01*
X1574836Y1013232D01*
X1564230Y1002626D01*
G37*
G36*
X1560694Y1006162D02*
X1558714Y1008142D01*
X1569320Y1018748D01*
X1571300Y1016768D01*
X1560694Y1006162D01*
G37*
G36*
X1557159Y1009697D02*
X1555179Y1011677D01*
X1565785Y1022283D01*
X1567765Y1020303D01*
X1557159Y1009697D01*
G37*
G36*
X1553623Y1013233D02*
X1551643Y1015213D01*
X1562249Y1025819D01*
X1564229Y1023839D01*
X1553623Y1013233D01*
G37*
G36*
X1550088Y1016768D02*
X1548108Y1018748D01*
X1558714Y1029354D01*
X1560694Y1027374D01*
X1550088Y1016768D01*
G37*
D11*
G36*
X1537500Y1016768D02*
X1526894Y1027374D01*
X1528874Y1029354D01*
X1539480Y1018748D01*
X1537500Y1016768D01*
G37*
G36*
X1533965Y1013233D02*
X1523359Y1023839D01*
X1525339Y1025819D01*
X1535945Y1015213D01*
X1533965Y1013233D01*
G37*
G36*
X1530429Y1009697D02*
X1519823Y1020303D01*
X1521803Y1022283D01*
X1532409Y1011677D01*
X1530429Y1009697D01*
G37*
G36*
X1526894Y1006162D02*
X1516288Y1016768D01*
X1518268Y1018748D01*
X1528874Y1008142D01*
X1526894Y1006162D01*
G37*
G36*
X1523358Y1002626D02*
X1512752Y1013232D01*
X1514732Y1015212D01*
X1525338Y1004606D01*
X1523358Y1002626D01*
G37*
G36*
X1519823Y999091D02*
X1509217Y1009697D01*
X1511197Y1011677D01*
X1521803Y1001071D01*
X1519823Y999091D01*
G37*
G36*
X1516287Y995555D02*
X1505681Y1006161D01*
X1507661Y1008141D01*
X1518267Y997535D01*
X1516287Y995555D01*
G37*
G36*
X1512752Y992020D02*
X1502146Y1002626D01*
X1504126Y1004606D01*
X1514732Y994000D01*
X1512752Y992020D01*
G37*
G36*
X1509216Y988484D02*
X1498610Y999090D01*
X1500590Y1001070D01*
X1511196Y990464D01*
X1509216Y988484D01*
G37*
G36*
X1505681Y984949D02*
X1495075Y995555D01*
X1497055Y997535D01*
X1507661Y986929D01*
X1505681Y984949D01*
G37*
G36*
X1502145Y981413D02*
X1491539Y992019D01*
X1493519Y993999D01*
X1504125Y983393D01*
X1502145Y981413D01*
G37*
G36*
X1498609Y977878D02*
X1488003Y988484D01*
X1489983Y990464D01*
X1500589Y979858D01*
X1498609Y977878D01*
G37*
D12*
X822452Y826770D03*
X822452Y814070D03*
X822452Y801370D03*
X822452Y788670D03*
X822452Y775970D03*
X822452Y763270D03*
X822452Y750570D03*
X871728Y750570D03*
X871728Y763270D03*
X871728Y775970D03*
X871728Y788670D03*
X871728Y801370D03*
X871728Y814070D03*
X871728Y826770D03*
D13*
X1769364Y461010D03*
X1769364Y448310D03*
X1769364Y435610D03*
X1769364Y422910D03*
X1769364Y410210D03*
X1769364Y397510D03*
X1769364Y384810D03*
X1769364Y372110D03*
X1817370Y372110D03*
X1817370Y384810D03*
X1817370Y397510D03*
X1817370Y410210D03*
X1817370Y422910D03*
X1817370Y435610D03*
X1817370Y448310D03*
X1817370Y461010D03*
X1874774Y461010D03*
X1874774Y448310D03*
X1874774Y435610D03*
X1874774Y422910D03*
X1874774Y410210D03*
X1874774Y397510D03*
X1874774Y384810D03*
X1874774Y372110D03*
X1922780Y372110D03*
X1922780Y384810D03*
X1922780Y397510D03*
X1922780Y410210D03*
X1922780Y422910D03*
X1922780Y435610D03*
X1922780Y448310D03*
X1922780Y461010D03*
D14*
X912622Y508000D03*
X906018Y508000D03*
X899922Y508000D03*
X893318Y508000D03*
X887222Y508000D03*
X880618Y508000D03*
X874522Y508000D03*
X867918Y508000D03*
X861822Y508000D03*
X855218Y508000D03*
X849122Y508000D03*
X842518Y508000D03*
X836422Y508000D03*
X829818Y508000D03*
X823722Y508000D03*
X817118Y508000D03*
X811022Y508000D03*
X804418Y508000D03*
X798322Y508000D03*
X791718Y508000D03*
X785622Y508000D03*
X779018Y508000D03*
X772922Y508000D03*
X766318Y508000D03*
X760222Y508000D03*
X753618Y508000D03*
X747522Y508000D03*
X740918Y508000D03*
X740918Y411480D03*
X747522Y411480D03*
X753618Y411480D03*
X760222Y411480D03*
X766318Y411480D03*
X772922Y411480D03*
X779018Y411480D03*
X785622Y411480D03*
X791718Y411480D03*
X798322Y411480D03*
X804418Y411480D03*
X811022Y411480D03*
X817118Y411480D03*
X823722Y411480D03*
X829818Y411480D03*
X836422Y411480D03*
X842518Y411480D03*
X849122Y411480D03*
X855218Y411480D03*
X861822Y411480D03*
X867918Y411480D03*
X874522Y411480D03*
X880618Y411480D03*
X887222Y411480D03*
X893318Y411480D03*
X899922Y411480D03*
X906018Y411480D03*
X912622Y411480D03*
D15*
X941070Y708152D03*
X941070Y701548D03*
X941070Y695452D03*
X941070Y688848D03*
X941070Y682752D03*
X941070Y676148D03*
X941070Y670052D03*
X941070Y663448D03*
X941070Y657352D03*
X941070Y650748D03*
X941070Y644652D03*
X941070Y638048D03*
X941070Y631952D03*
X941070Y625348D03*
X941070Y619252D03*
X941070Y612648D03*
X941070Y606552D03*
X941070Y599948D03*
X941070Y593852D03*
X941070Y587248D03*
X941070Y581152D03*
X941070Y574548D03*
X941070Y568452D03*
X941070Y561848D03*
X941070Y555752D03*
X941070Y549148D03*
X941070Y543052D03*
X941070Y536448D03*
X1037590Y536448D03*
X1037590Y543052D03*
X1037590Y549148D03*
X1037590Y555752D03*
X1037590Y561848D03*
X1037590Y568452D03*
X1037590Y574548D03*
X1037590Y581152D03*
X1037590Y587248D03*
X1037590Y593852D03*
X1037590Y599948D03*
X1037590Y606552D03*
X1037590Y612648D03*
X1037590Y619252D03*
X1037590Y625348D03*
X1037590Y631952D03*
X1037590Y638048D03*
X1037590Y644652D03*
X1037590Y650748D03*
X1037590Y657352D03*
X1037590Y663448D03*
X1037590Y670052D03*
X1037590Y676148D03*
X1037590Y682752D03*
X1037590Y688848D03*
X1037590Y695452D03*
X1037590Y701548D03*
X1037590Y708152D03*
X1037590Y211328D03*
X1037590Y217932D03*
X1037590Y224028D03*
X1037590Y230632D03*
X1037590Y236728D03*
X1037590Y243332D03*
X1037590Y249428D03*
X1037590Y256032D03*
X1037590Y262128D03*
X1037590Y268732D03*
X1037590Y274828D03*
X1037590Y281432D03*
X1037590Y287528D03*
X1037590Y294132D03*
X1037590Y300228D03*
X1037590Y306832D03*
X1037590Y312928D03*
X1037590Y319532D03*
X1037590Y325628D03*
X1037590Y332232D03*
X1037590Y338328D03*
X1037590Y344932D03*
X1037590Y351028D03*
X1037590Y357632D03*
X1037590Y363728D03*
X1037590Y370332D03*
X1037590Y376428D03*
X1037590Y383032D03*
X941070Y383032D03*
X941070Y376428D03*
X941070Y370332D03*
X941070Y363728D03*
X941070Y357632D03*
X941070Y351028D03*
X941070Y344932D03*
X941070Y338328D03*
X941070Y332232D03*
X941070Y325628D03*
X941070Y319532D03*
X941070Y312928D03*
X941070Y306832D03*
X941070Y300228D03*
X941070Y294132D03*
X941070Y287528D03*
X941070Y281432D03*
X941070Y274828D03*
X941070Y268732D03*
X941070Y262128D03*
X941070Y256032D03*
X941070Y249428D03*
X941070Y243332D03*
X941070Y236728D03*
X941070Y230632D03*
X941070Y224028D03*
X941070Y217932D03*
X941070Y211328D03*
D14*
X1066038Y411480D03*
X1072642Y411480D03*
X1078738Y411480D03*
X1085342Y411480D03*
X1091438Y411480D03*
X1098042Y411480D03*
X1104138Y411480D03*
X1110742Y411480D03*
X1116838Y411480D03*
X1123442Y411480D03*
X1129538Y411480D03*
X1136142Y411480D03*
X1142238Y411480D03*
X1148842Y411480D03*
X1154938Y411480D03*
X1161542Y411480D03*
X1167638Y411480D03*
X1174242Y411480D03*
X1180338Y411480D03*
X1186942Y411480D03*
X1193038Y411480D03*
X1199642Y411480D03*
X1205738Y411480D03*
X1212342Y411480D03*
X1218438Y411480D03*
X1225042Y411480D03*
X1231138Y411480D03*
X1237742Y411480D03*
X1237742Y508000D03*
X1231138Y508000D03*
X1225042Y508000D03*
X1218438Y508000D03*
X1212342Y508000D03*
X1205738Y508000D03*
X1199642Y508000D03*
X1193038Y508000D03*
X1186942Y508000D03*
X1180338Y508000D03*
X1174242Y508000D03*
X1167638Y508000D03*
X1161542Y508000D03*
X1154938Y508000D03*
X1148842Y508000D03*
X1142238Y508000D03*
X1136142Y508000D03*
X1129538Y508000D03*
X1123442Y508000D03*
X1116838Y508000D03*
X1110742Y508000D03*
X1104138Y508000D03*
X1098042Y508000D03*
X1091438Y508000D03*
X1085342Y508000D03*
X1078738Y508000D03*
X1072642Y508000D03*
X1066038Y508000D03*
D13*
X518414Y266700D03*
X518414Y254000D03*
X518414Y241300D03*
X518414Y228600D03*
X518414Y215900D03*
X518414Y203200D03*
X518414Y190500D03*
X518414Y177800D03*
X566420Y177800D03*
X566420Y190500D03*
X566420Y203200D03*
X566420Y215900D03*
X566420Y228600D03*
X566420Y241300D03*
X566420Y254000D03*
X566420Y266700D03*
X690626Y177800D03*
X690626Y190500D03*
X690626Y203200D03*
X690626Y215900D03*
X690626Y228600D03*
X690626Y241300D03*
X690626Y254000D03*
X690626Y266700D03*
X642620Y266700D03*
X642620Y254000D03*
X642620Y241300D03*
X642620Y228600D03*
X642620Y215900D03*
X642620Y203200D03*
X642620Y190500D03*
X642620Y177800D03*
X690626Y288290D03*
X690626Y300990D03*
X690626Y313690D03*
X690626Y326390D03*
X690626Y339090D03*
X690626Y351790D03*
X690626Y364490D03*
X690626Y377190D03*
X642620Y377190D03*
X642620Y364490D03*
X642620Y351790D03*
X642620Y339090D03*
X642620Y326390D03*
X642620Y313690D03*
X642620Y300990D03*
X642620Y288290D03*
X690626Y400050D03*
X690626Y412750D03*
X690626Y425450D03*
X690626Y438150D03*
X690626Y450850D03*
X690626Y463550D03*
X690626Y476250D03*
X690626Y488950D03*
X642620Y488950D03*
X642620Y476250D03*
X642620Y463550D03*
X642620Y450850D03*
X642620Y438150D03*
X642620Y425450D03*
X642620Y412750D03*
X642620Y400050D03*
X1390396Y529590D03*
X1390396Y542290D03*
X1390396Y554990D03*
X1390396Y567690D03*
X1390396Y580390D03*
X1390396Y593090D03*
X1390396Y605790D03*
X1390396Y618490D03*
X1342390Y618490D03*
X1342390Y605790D03*
X1342390Y593090D03*
X1342390Y580390D03*
X1342390Y567690D03*
X1342390Y554990D03*
X1342390Y542290D03*
X1342390Y529590D03*
X1390396Y638810D03*
X1390396Y651510D03*
X1390396Y664210D03*
X1390396Y676910D03*
X1390396Y689610D03*
X1390396Y702310D03*
X1390396Y715010D03*
X1390396Y727710D03*
X1342390Y727710D03*
X1342390Y715010D03*
X1342390Y702310D03*
X1342390Y689610D03*
X1342390Y676910D03*
X1342390Y664210D03*
X1342390Y651510D03*
X1342390Y638810D03*
D16*
X1328420Y794766D03*
X1315720Y794766D03*
X1303020Y794766D03*
X1290320Y794766D03*
X1277620Y794766D03*
X1264920Y794766D03*
X1252220Y794766D03*
X1239520Y794766D03*
X1239520Y746760D03*
X1252220Y746760D03*
X1264920Y746760D03*
X1277620Y746760D03*
X1290320Y746760D03*
X1303020Y746760D03*
X1315720Y746760D03*
X1328420Y746760D03*
X1219200Y794766D03*
X1206500Y794766D03*
X1193800Y794766D03*
X1181100Y794766D03*
X1168400Y794766D03*
X1155700Y794766D03*
X1143000Y794766D03*
X1130300Y794766D03*
X1130300Y746760D03*
X1143000Y746760D03*
X1155700Y746760D03*
X1168400Y746760D03*
X1181100Y746760D03*
X1193800Y746760D03*
X1206500Y746760D03*
X1219200Y746760D03*
X1109980Y794766D03*
X1097280Y794766D03*
X1084580Y794766D03*
X1071880Y794766D03*
X1059180Y794766D03*
X1046480Y794766D03*
X1033780Y794766D03*
X1021080Y794766D03*
X1021080Y746760D03*
X1033780Y746760D03*
X1046480Y746760D03*
X1059180Y746760D03*
X1071880Y746760D03*
X1084580Y746760D03*
X1097280Y746760D03*
X1109980Y746760D03*
D13*
X1636014Y835660D03*
X1636014Y822960D03*
X1636014Y810260D03*
X1636014Y797560D03*
X1636014Y784860D03*
X1636014Y772160D03*
X1636014Y759460D03*
X1636014Y746760D03*
X1684020Y746760D03*
X1684020Y759460D03*
X1684020Y772160D03*
X1684020Y784860D03*
X1684020Y797560D03*
X1684020Y810260D03*
X1684020Y822960D03*
X1684020Y835660D03*
X1636014Y721360D03*
X1636014Y708660D03*
X1636014Y695960D03*
X1636014Y683260D03*
X1636014Y670560D03*
X1636014Y657860D03*
X1636014Y645160D03*
X1636014Y632460D03*
X1684020Y632460D03*
X1684020Y645160D03*
X1684020Y657860D03*
X1684020Y670560D03*
X1684020Y683260D03*
X1684020Y695960D03*
X1684020Y708660D03*
X1684020Y721360D03*
X1636014Y607060D03*
X1636014Y594360D03*
X1636014Y581660D03*
X1636014Y568960D03*
X1636014Y556260D03*
X1636014Y543560D03*
X1636014Y530860D03*
X1636014Y518160D03*
X1684020Y518160D03*
X1684020Y530860D03*
X1684020Y543560D03*
X1684020Y556260D03*
X1684020Y568960D03*
X1684020Y581660D03*
X1684020Y594360D03*
X1684020Y607060D03*
X1636014Y344170D03*
X1636014Y331470D03*
X1636014Y318770D03*
X1636014Y306070D03*
X1636014Y293370D03*
X1636014Y280670D03*
X1636014Y267970D03*
X1636014Y255270D03*
X1684020Y255270D03*
X1684020Y267970D03*
X1684020Y280670D03*
X1684020Y293370D03*
X1684020Y306070D03*
X1684020Y318770D03*
X1684020Y331470D03*
X1684020Y344170D03*
X1636014Y229870D03*
X1636014Y217170D03*
X1636014Y204470D03*
X1636014Y191770D03*
X1636014Y179070D03*
X1636014Y166370D03*
X1636014Y153670D03*
X1636014Y140970D03*
X1684020Y140970D03*
X1684020Y153670D03*
X1684020Y166370D03*
X1684020Y179070D03*
X1684020Y191770D03*
X1684020Y204470D03*
X1684020Y217170D03*
X1684020Y229870D03*
X1636014Y115570D03*
X1636014Y102870D03*
X1636014Y90170D03*
X1636014Y77470D03*
X1636014Y64770D03*
X1636014Y52070D03*
X1636014Y39370D03*
X1636014Y26670D03*
X1684020Y26670D03*
X1684020Y39370D03*
X1684020Y52070D03*
X1684020Y64770D03*
X1684020Y77470D03*
X1684020Y90170D03*
X1684020Y102870D03*
X1684020Y115570D03*
D17*
X1540510Y1112520D03*
X1525270Y1112520D03*
X1685290Y481330D03*
X1685290Y466090D03*
X594360Y722630D03*
X579120Y722630D03*
X594360Y706120D03*
X579120Y706120D03*
X585470Y604520D03*
X600710Y604520D03*
X585470Y621030D03*
X600710Y621030D03*
X1384300Y198120D03*
X1399540Y198120D03*
X1384300Y214630D03*
X1399540Y214630D03*
X1394460Y316230D03*
X1379220Y316230D03*
X1394460Y299720D03*
X1379220Y299720D03*
X514350Y551180D03*
X514350Y535940D03*
X497840Y551180D03*
X497840Y535940D03*
X1021080Y845820D03*
X1021080Y861060D03*
X1037590Y845820D03*
X1037590Y861060D03*
X1322070Y514350D03*
X1322070Y529590D03*
X1305560Y514350D03*
X1305560Y529590D03*
X1356360Y762000D03*
X1356360Y746760D03*
X1372870Y762000D03*
X1372870Y746760D03*
X1715770Y821690D03*
X1715770Y836930D03*
X1732280Y821690D03*
X1732280Y836930D03*
X1705610Y736600D03*
X1705610Y721360D03*
X1722120Y736600D03*
X1722120Y721360D03*
X1705610Y622300D03*
X1705610Y607060D03*
X1722120Y622300D03*
X1722120Y607060D03*
X1717040Y330200D03*
X1717040Y345440D03*
X1733550Y330200D03*
X1733550Y345440D03*
X1705610Y245110D03*
X1705610Y229870D03*
X1722120Y245110D03*
X1722120Y229870D03*
X1705610Y130810D03*
X1705610Y115570D03*
X1722120Y130810D03*
X1722120Y115570D03*
X1508760Y1079500D03*
X1493520Y1079500D03*
X1569720Y1188720D03*
X1554480Y1188720D03*
X1601470Y1188720D03*
X1586230Y1188720D03*
X1633220Y1188720D03*
X1617980Y1188720D03*
D18*
X1636430Y422910D03*
X1688430Y422910D03*
X1636430Y435610D03*
X1636430Y410210D03*
X1636430Y397510D03*
X1688430Y435610D03*
X1688430Y410210D03*
X1688430Y397510D03*
D19*
X1666600Y480960D03*
X1648100Y480960D03*
X1648100Y466460D03*
X1666600Y466460D03*
D17*
X1540510Y1096010D03*
X1525270Y1096010D03*
X1715770Y408940D03*
X1715770Y424180D03*
X1084580Y834390D03*
X1084580Y819150D03*
X1654810Y864870D03*
X1639570Y864870D03*
D13*
X566166Y336550D03*
X566166Y349250D03*
X566166Y361950D03*
X566166Y374650D03*
X566166Y387350D03*
X566166Y400050D03*
X566166Y412750D03*
X566166Y425450D03*
X518160Y425450D03*
X518160Y412750D03*
X518160Y400050D03*
X518160Y387350D03*
X518160Y374650D03*
X518160Y361950D03*
X518160Y349250D03*
X518160Y336550D03*
D17*
X1068070Y819150D03*
X1068070Y834390D03*
X1686560Y864870D03*
X1671320Y864870D03*
X584200Y158750D03*
X568960Y158750D03*
X537210Y158750D03*
X552450Y158750D03*
D20*
X1537462Y1045972D03*
X1537462Y1064768D03*
X1515618Y1055370D03*
D17*
X1525270Y1079500D03*
X1540510Y1079500D03*
X1866900Y303530D03*
X1866900Y318770D03*
X1883410Y303530D03*
X1883410Y318770D03*
X1866900Y795020D03*
X1866900Y810260D03*
X1883410Y795020D03*
X1883410Y810260D03*
X892810Y811530D03*
X892810Y826770D03*
X909320Y811530D03*
X909320Y826770D03*
X1626870Y971550D03*
X1611630Y971550D03*
X1658620Y971550D03*
X1643380Y971550D03*
D21*
X322580Y1233170D03*
X302260Y1233170D03*
D22*
X322580Y1148380D03*
X322580Y1185880D03*
D23*
X322580Y1093470D03*
X322580Y1123950D03*
D24*
X233680Y1196340D03*
X233680Y1099820D03*
D21*
X302260Y1273810D03*
X322580Y1273810D03*
D25*
X1896230Y539910D03*
D26*
X1903730Y539910D03*
D25*
X1911230Y539910D03*
X1911230Y558410D03*
X1896230Y558410D03*
D27*
X1187610Y196730D03*
D28*
X1187610Y189230D03*
D27*
X1187610Y181730D03*
X1206110Y181730D03*
X1206110Y196730D03*
X561180Y449700D03*
D28*
X561180Y457200D03*
D27*
X561180Y464700D03*
X542680Y464700D03*
X542680Y449700D03*
D29*
X0Y0D02*
X2006600Y0D01*
X2006600Y1371600D01*
X0Y1371600D01*
X0Y0D01*
M02*
