M48
;GenerationSoftware,Autodesk,EAGLE,9.2.0*%
;CreationDate,2018-11-21T03:22:20Z*%
FMAT,2
ICI,OFF
METRIC,TZ,000.000
T10C0.305
T9C0.350
T8C0.381
T7C0.813
T6C0.864
T5C1.000
T4C1.100
T3C1.194
T2C3.000
T1C3.200
%
G90
M71
T1
X173157Y125603
X148153Y125603
T2
X195580Y132080
X195580Y5080
X5080Y132080
X5080Y5080
T3
X165448Y128144
X158575Y128144
X163157Y128144
X160866Y128144
X155438Y125603
X165448Y123062
X157729Y125603
X156284Y128144
X160020Y125603
X162311Y125603
X164602Y125603
X156284Y123062
X158575Y123062
X160866Y123062
X163157Y123062
T4
X10668Y124634
X10668Y114634
X10668Y119634
T5
X15113Y97536
X30988Y79756
X15113Y100076
X15113Y102616
X27813Y100076
X8128Y64516
X30988Y36576
X30988Y39116
X30988Y41656
X30988Y44196
X30988Y46736
X30988Y49276
X30988Y51816
X30988Y54356
X30988Y56896
X30988Y59436
X30988Y61976
X30988Y64516
X30988Y67056
X30988Y69596
X30988Y72136
X30988Y74676
X30988Y77216
X30988Y82296
X30988Y84836
X30988Y87376
X30988Y89916
X30988Y92456
X30988Y94996
X30988Y97536
X30988Y100076
X30988Y102616
X8128Y36576
X8128Y39116
X8128Y41656
X8128Y44196
X8128Y46736
X8128Y49276
X8128Y51816
X8128Y54356
X8128Y56896
X8128Y59436
X8128Y61976
X8128Y67056
X8128Y69596
X8128Y72136
X8128Y74676
X8128Y77216
X8128Y79756
X8128Y82296
X8128Y84836
X8128Y87376
X8128Y89916
X8128Y92456
X8128Y94996
X8128Y97536
X8128Y100076
X8128Y102616
X27813Y94996
X27813Y97536
X27813Y102616
X25273Y97536
X25273Y100076
X25273Y102616
X22733Y97536
X22733Y100076
X22733Y102616
X20193Y97536
X20193Y100076
X20193Y102616
X17653Y97536
X17653Y100076
X17653Y102616
T6
X23368Y123317
X34544Y127381
X17272Y119634
X34544Y123317
X23368Y106553
X15344Y109982
T7
X184150Y21717
X184150Y19177
X176530Y58166
X176530Y24257
X176530Y16637
X176530Y19177
X184150Y16637
X184150Y11557
X184150Y9017
X184150Y6477
X184150Y3937
X176530Y3937
X176530Y6477
X176530Y9017
X176530Y11557
X176530Y26797
X176530Y29337
X176530Y31877
X176530Y21717
X184150Y81026
X184150Y78486
X184150Y75946
X184150Y73406
X184150Y70866
X184150Y68326
X184150Y65786
X184150Y63246
X184150Y60706
X184150Y58166
X184150Y14097
X184150Y55626
X184150Y53086
X176530Y53086
X176530Y55626
X176530Y60706
X176530Y63246
X176530Y65786
X176530Y68326
X176530Y14097
X176530Y70866
X176530Y73406
X176530Y75946
X176530Y78486
X176530Y81026
X184150Y31877
X184150Y29337
X184150Y26797
X184150Y24257
T8
X86487Y58420
X87376Y57531
X88265Y56642
X89154Y55753
X90034Y54873
X90932Y53975
X122809Y22098
X121930Y22977
X121031Y23876
X120142Y24765
X119253Y25654
X118364Y26543
X117475Y27432
X116586Y28321
X115824Y29083
X115062Y29845
X113792Y31115
X113030Y31877
X112268Y32639
X111379Y33528
X110490Y34417
X109601Y35306
X108712Y36195
X107832Y37075
X106934Y37973
X153035Y7493
X141224Y17399
X152146Y8382
X140335Y16510
X151257Y9271
X139065Y16129
X137668Y16129
X136779Y35560
X149479Y11049
X138176Y34544
X148590Y11938
X139954Y34290
X147701Y12827
X141097Y34925
X146812Y13716
X56769Y74676
X48895Y87122
X57658Y75565
X49911Y86233
X59563Y74930
X50927Y85344
X59690Y75946
X51943Y84455
X60579Y57150
X52959Y83566
X59563Y57785
X53975Y82677
X57404Y57277
X54991Y81788
X56515Y58166
X55880Y80899
X73025Y50292
X124841Y50292
X105537Y50292
X92405Y50292
X140589Y36830
X156083Y52324
X55867Y59055
X103505Y20117
X103378Y39370
X103378Y52578
X94488Y52578
X79883Y77597
X91948Y71501
X55880Y51308
X105156Y87376
X91821Y53086
X106045Y38862
X111760Y81280
X122682Y81280
X133731Y81153
X140716Y63246
X141097Y52070
X62499Y17780
X132588Y60579
X132588Y63881
X140716Y60579
X102108Y72898
X110998Y72898
X122301Y72898
X56642Y27813
X62636Y28829
X62611Y40005
X51435Y52197
X59309Y59055
X58166Y73660
X105156Y86106
X139700Y18288
X138557Y33020
X172847Y42418
X181737Y47244
X183388Y39751
X192278Y47371
X58293Y34925
X51816Y32512
X175260Y41021
X185801Y41021
X92481Y5156
X80518Y78867
X129159Y52959
X92329Y82677
X189738Y31877
X189738Y81026
X157353Y56769
X170307Y51816
X173609Y72136
X174625Y83693
X173609Y60706
X108712Y5207
X174752Y34544
X193929Y39751
X169799Y46609
X134239Y74676
X34112Y118618
X121666Y19685
X53213Y44958
X189611Y56896
X60096Y20447
X58547Y38735
X44069Y10160
X44958Y11049
X45847Y11938
X46736Y12827
X47625Y13716
X48514Y14605
X49403Y15494
X50292Y16383
X71374Y17780
X75936Y22977
X71374Y19050
X76835Y23876
X71374Y20320
X77724Y24765
X71374Y21590
X78613Y25654
X71374Y22860
X79502Y26543
X71374Y24130
X80391Y27432
X71374Y25400
X81280Y28321
X71374Y27686
X82169Y29210
X71374Y28829
X83058Y30099
X71374Y30099
X83947Y30988
X71374Y31369
X150368Y10160
X71374Y32639
X85598Y32639
X71374Y33909
X86487Y33528
X71374Y35179
X87376Y34417
X71374Y36449
X88265Y35306
X71374Y38608
X89154Y36195
X71374Y39878
X90034Y37075
X71374Y41275
X90932Y37973
X62611Y25781
X62484Y36830
X61341Y24511
X61341Y35179
X61087Y47879
X58293Y18669
X146431Y89281
X156972Y91186
X158496Y91186
X160020Y91186
X161544Y91186
X145415Y88265
X157734Y90424
X159258Y90424
X160782Y90424
X162306Y90424
X149098Y93599
X150622Y92075
X144399Y87249
X150622Y91059
X149098Y92583
X147574Y94107
X143383Y86233
X151638Y90551
X149098Y91567
X147574Y93091
X142367Y85217
X148463Y102489
X148463Y100203
X141351Y84201
X147752Y99416
X147752Y103988
X147752Y101727
X140335Y83185
X146990Y98654
X146990Y103226
X146990Y100965
X139319Y82169
X163957Y89154
X152908Y90551
X80518Y81407
X70358Y81407
X153416Y119888
X167640Y119888
X83947Y99441
X193929Y43561
X183388Y42291
X183388Y43561
X106045Y53086
X104648Y72009
X106934Y53975
X105918Y72009
X107832Y54873
X107188Y72009
X108712Y55753
X108458Y72009
X109601Y56642
X115570Y72009
X110490Y57531
X116840Y72009
X111379Y58420
X118110Y72009
X112268Y59309
X119380Y72009
X113157Y60198
X126492Y72009
X113919Y60960
X127762Y72009
X114808Y61849
X129032Y72009
X115697Y62738
X130302Y72009
X116586Y63627
X124079Y64516
X117475Y64516
X124968Y63754
X118364Y65405
X125857Y62865
X119253Y66294
X126746Y63754
X120142Y67183
X127635Y62865
X121031Y68072
X128524Y60198
X121930Y68971
X129413Y57658
X126822Y69037
X130302Y55880
X71374Y42545
X91821Y38862
X58293Y17399
X62484Y20320
X140716Y71501
X132588Y71120
X132334Y54483
X125857Y81280
X124841Y72898
X131191Y65151
X114300Y81280
X114300Y72898
X131572Y72771
X120650Y72136
X103378Y72898
X103378Y81280
X60833Y75946
X53721Y47879
X126492Y16256
X185801Y44831
X185801Y43561
X193929Y42291
X61595Y32639
X62230Y45085
X62230Y48870
X60325Y24130
X60452Y21590
X58293Y37465
X53213Y46482
X152527Y112649
X154559Y91694
X151257Y103378
X158750Y100965
X150876Y106553
X156972Y117475
X160147Y117475
X155829Y91186
X151511Y102362
X159131Y101981
X157734Y103378
X147955Y95631
X84709Y31750
X52832Y55118
X70699Y26670
X62626Y32131
X70699Y37719
X70699Y48895
X140716Y61849
X124333Y81280
X113030Y81280
X102108Y81280
X140716Y72771
X129032Y81280
X118110Y81280
X92456Y16586
X62484Y21590
X58293Y23241
X51816Y16637
X62230Y43815
X40005Y39624
X117780Y18059
X58166Y59055
X56007Y73660
X59309Y73660
X145923Y39624
X92329Y97561
X138684Y18288
X139700Y33020
X141986Y18288
X169799Y48133
X172847Y40894
X185801Y37211
X175260Y37211
X58293Y36195
X56540Y47981
X80518Y75057
X161798Y54356
X105283Y81153
X56617Y43866
X161798Y68326
X129159Y51435
X161798Y63246
X167259Y97155
X155829Y56769
X170053Y86487
X192278Y48895
X92329Y81153
X189738Y30353
X189738Y79502
X140716Y58039
X173609Y73660
X174625Y82169
X173609Y62230
X108712Y3683
X181737Y48768
X174752Y33020
X53340Y32512
X105156Y84582
X140716Y68961
X132588Y62357
X123571Y72898
X112522Y72898
X134239Y76200
X34163Y109347
X192151Y53975
X75936Y68971
X76835Y68072
X77724Y67183
X78613Y66294
X79502Y65405
X80391Y64516
X81280Y63627
X82042Y62865
X82804Y62103
X84201Y60706
X84963Y59944
X85725Y59182
X163322Y117475
T9
X161798Y53086
X161798Y25527
X161798Y19177
X161798Y14097
X161798Y5207
X161798Y2667
X161798Y10287
X170180Y64516
X173609Y11557
X170180Y82296
X161798Y3937
X170307Y53086
X172212Y70485
X161798Y15367
X170180Y15367
X173609Y22987
X161798Y75946
X170180Y33147
X170688Y3937
X171831Y21336
X161798Y79756
X161798Y64516
X160528Y99060
X161798Y26797
X170180Y2667
X161798Y32512
X161798Y61595
X161798Y73025
X163551Y84684
X75057Y69850
X173609Y13081
X173609Y24511
X161798Y21082
X161798Y74676
X161798Y51816
X161798Y30607
T10
X92763Y23063
X121844Y52220
X117424Y52220
X112954Y52220
X108534Y52220
X84912Y39626
X92763Y27483
X105103Y57455
X105103Y67005
X92710Y67005
X87452Y52144
X77902Y52144
X92738Y57455
X105283Y24943
X119964Y39804
X105255Y34493
X77902Y39624
X92763Y34493
X92763Y24943
X87452Y39652
X119964Y52220
X110414Y52220
X110414Y39804
X89332Y39652
X105334Y36424
X105232Y68910
X105103Y55575
X105103Y59995
X105103Y64465
X92710Y64465
X92710Y68885
X89332Y52144
X84912Y52144
X80442Y52144
X76022Y52144
X92712Y59995
X92738Y55575
X105283Y27483
X105283Y23063
X108534Y39804
X112954Y39804
X117424Y39804
X121844Y39804
X105281Y31953
X80442Y39624
X76022Y39624
X92763Y36373
X92763Y31953
M30