G04 EAGLE Gerber RS-274X export*
G75*
%MOMM*%
%FSLAX34Y34*%
%LPD*%
%INSilkscreen Bottom*%
%IPPOS*%
%AMOC8*
5,1,8,0,0,1.08239X$1,22.5*%
G01*
%ADD10C,0.127000*%
%ADD11C,0.101600*%


D10*
X22860Y214630D02*
X16510Y214630D01*
X16510Y135890D01*
X156210Y135890D01*
X156210Y214630D01*
D11*
X141732Y125109D02*
X137837Y125109D01*
X137738Y125107D01*
X137638Y125101D01*
X137539Y125092D01*
X137441Y125079D01*
X137343Y125062D01*
X137245Y125041D01*
X137149Y125016D01*
X137054Y124988D01*
X136960Y124956D01*
X136867Y124921D01*
X136775Y124882D01*
X136685Y124839D01*
X136597Y124794D01*
X136510Y124744D01*
X136426Y124692D01*
X136343Y124636D01*
X136263Y124578D01*
X136185Y124516D01*
X136110Y124451D01*
X136037Y124383D01*
X135967Y124313D01*
X135899Y124240D01*
X135834Y124165D01*
X135772Y124087D01*
X135714Y124007D01*
X135658Y123924D01*
X135606Y123840D01*
X135556Y123753D01*
X135511Y123665D01*
X135468Y123575D01*
X135429Y123483D01*
X135394Y123390D01*
X135362Y123296D01*
X135334Y123201D01*
X135309Y123105D01*
X135288Y123007D01*
X135271Y122909D01*
X135258Y122811D01*
X135249Y122712D01*
X135243Y122612D01*
X135241Y122513D01*
X135241Y121864D01*
X135240Y121864D02*
X135242Y121751D01*
X135248Y121638D01*
X135258Y121525D01*
X135272Y121412D01*
X135289Y121300D01*
X135311Y121189D01*
X135336Y121079D01*
X135366Y120969D01*
X135399Y120861D01*
X135436Y120754D01*
X135476Y120648D01*
X135521Y120544D01*
X135569Y120441D01*
X135620Y120340D01*
X135675Y120241D01*
X135733Y120144D01*
X135795Y120049D01*
X135860Y119956D01*
X135928Y119866D01*
X135999Y119778D01*
X136074Y119692D01*
X136151Y119609D01*
X136231Y119529D01*
X136314Y119452D01*
X136400Y119377D01*
X136488Y119306D01*
X136578Y119238D01*
X136671Y119173D01*
X136766Y119111D01*
X136863Y119053D01*
X136962Y118998D01*
X137063Y118947D01*
X137166Y118899D01*
X137270Y118854D01*
X137376Y118814D01*
X137483Y118777D01*
X137591Y118744D01*
X137701Y118714D01*
X137811Y118689D01*
X137922Y118667D01*
X138034Y118650D01*
X138147Y118636D01*
X138260Y118626D01*
X138373Y118620D01*
X138486Y118618D01*
X138599Y118620D01*
X138712Y118626D01*
X138825Y118636D01*
X138938Y118650D01*
X139050Y118667D01*
X139161Y118689D01*
X139271Y118714D01*
X139381Y118744D01*
X139489Y118777D01*
X139596Y118814D01*
X139702Y118854D01*
X139806Y118899D01*
X139909Y118947D01*
X140010Y118998D01*
X140109Y119053D01*
X140206Y119111D01*
X140301Y119173D01*
X140394Y119238D01*
X140484Y119306D01*
X140572Y119377D01*
X140658Y119452D01*
X140741Y119529D01*
X140821Y119609D01*
X140898Y119692D01*
X140973Y119778D01*
X141044Y119866D01*
X141112Y119956D01*
X141177Y120049D01*
X141239Y120144D01*
X141297Y120241D01*
X141352Y120340D01*
X141403Y120441D01*
X141451Y120544D01*
X141496Y120648D01*
X141536Y120754D01*
X141573Y120861D01*
X141606Y120969D01*
X141636Y121079D01*
X141661Y121189D01*
X141683Y121300D01*
X141700Y121412D01*
X141714Y121525D01*
X141724Y121638D01*
X141730Y121751D01*
X141732Y121864D01*
X141732Y125109D01*
X141730Y125252D01*
X141724Y125395D01*
X141714Y125538D01*
X141700Y125680D01*
X141683Y125822D01*
X141661Y125964D01*
X141636Y126105D01*
X141606Y126245D01*
X141573Y126384D01*
X141536Y126522D01*
X141495Y126659D01*
X141451Y126795D01*
X141402Y126930D01*
X141350Y127063D01*
X141295Y127195D01*
X141235Y127325D01*
X141172Y127454D01*
X141106Y127581D01*
X141036Y127706D01*
X140963Y127828D01*
X140886Y127949D01*
X140806Y128068D01*
X140723Y128184D01*
X140637Y128299D01*
X140548Y128410D01*
X140455Y128520D01*
X140360Y128626D01*
X140261Y128730D01*
X140160Y128831D01*
X140056Y128930D01*
X139950Y129025D01*
X139840Y129118D01*
X139729Y129207D01*
X139614Y129293D01*
X139498Y129376D01*
X139379Y129456D01*
X139258Y129533D01*
X139136Y129606D01*
X139011Y129676D01*
X138884Y129742D01*
X138755Y129805D01*
X138625Y129865D01*
X138493Y129920D01*
X138360Y129972D01*
X138225Y130021D01*
X138089Y130065D01*
X137952Y130106D01*
X137814Y130143D01*
X137675Y130176D01*
X137535Y130206D01*
X137394Y130231D01*
X137252Y130253D01*
X137110Y130270D01*
X136968Y130284D01*
X136825Y130294D01*
X136682Y130300D01*
X136539Y130302D01*
X46482Y127706D02*
X43236Y130302D01*
X43236Y118618D01*
X39991Y118618D02*
X46482Y118618D01*
X35053Y124460D02*
X35050Y124690D01*
X35042Y124920D01*
X35028Y125149D01*
X35009Y125378D01*
X34984Y125607D01*
X34954Y125835D01*
X34919Y126062D01*
X34878Y126288D01*
X34832Y126513D01*
X34780Y126737D01*
X34723Y126960D01*
X34661Y127181D01*
X34593Y127401D01*
X34520Y127619D01*
X34442Y127835D01*
X34359Y128049D01*
X34271Y128262D01*
X34178Y128472D01*
X34079Y128679D01*
X34046Y128769D01*
X34010Y128858D01*
X33970Y128946D01*
X33926Y129031D01*
X33879Y129115D01*
X33829Y129197D01*
X33775Y129277D01*
X33719Y129354D01*
X33659Y129430D01*
X33596Y129503D01*
X33531Y129573D01*
X33462Y129641D01*
X33391Y129705D01*
X33318Y129767D01*
X33242Y129826D01*
X33164Y129882D01*
X33083Y129935D01*
X33001Y129984D01*
X32917Y130030D01*
X32830Y130073D01*
X32743Y130112D01*
X32653Y130148D01*
X32563Y130180D01*
X32471Y130208D01*
X32378Y130233D01*
X32284Y130254D01*
X32190Y130271D01*
X32095Y130285D01*
X31999Y130294D01*
X31903Y130300D01*
X31807Y130302D01*
X31711Y130300D01*
X31615Y130294D01*
X31519Y130285D01*
X31424Y130271D01*
X31330Y130254D01*
X31236Y130233D01*
X31143Y130208D01*
X31051Y130180D01*
X30961Y130148D01*
X30871Y130112D01*
X30784Y130073D01*
X30697Y130030D01*
X30613Y129984D01*
X30531Y129935D01*
X30450Y129882D01*
X30372Y129826D01*
X30296Y129767D01*
X30223Y129705D01*
X30152Y129641D01*
X30083Y129573D01*
X30018Y129503D01*
X29955Y129430D01*
X29895Y129355D01*
X29839Y129277D01*
X29785Y129197D01*
X29735Y129115D01*
X29688Y129031D01*
X29645Y128946D01*
X29604Y128858D01*
X29568Y128769D01*
X29535Y128679D01*
X29436Y128471D01*
X29343Y128261D01*
X29255Y128049D01*
X29172Y127835D01*
X29094Y127618D01*
X29021Y127400D01*
X28953Y127181D01*
X28891Y126959D01*
X28834Y126737D01*
X28782Y126513D01*
X28736Y126288D01*
X28695Y126062D01*
X28660Y125834D01*
X28630Y125607D01*
X28605Y125378D01*
X28586Y125149D01*
X28572Y124920D01*
X28564Y124690D01*
X28561Y124460D01*
X35052Y124460D02*
X35049Y124230D01*
X35041Y124000D01*
X35027Y123771D01*
X35008Y123542D01*
X34983Y123313D01*
X34953Y123085D01*
X34918Y122858D01*
X34877Y122632D01*
X34831Y122407D01*
X34779Y122183D01*
X34722Y121960D01*
X34660Y121739D01*
X34592Y121519D01*
X34519Y121301D01*
X34441Y121085D01*
X34358Y120871D01*
X34270Y120659D01*
X34177Y120448D01*
X34078Y120241D01*
X34079Y120241D02*
X34046Y120151D01*
X34010Y120062D01*
X33969Y119974D01*
X33926Y119889D01*
X33879Y119805D01*
X33829Y119723D01*
X33775Y119643D01*
X33719Y119566D01*
X33659Y119490D01*
X33596Y119417D01*
X33531Y119347D01*
X33462Y119279D01*
X33391Y119215D01*
X33318Y119153D01*
X33242Y119094D01*
X33164Y119038D01*
X33083Y118985D01*
X33001Y118936D01*
X32917Y118890D01*
X32830Y118847D01*
X32743Y118808D01*
X32653Y118772D01*
X32563Y118740D01*
X32471Y118712D01*
X32378Y118687D01*
X32284Y118666D01*
X32190Y118649D01*
X32095Y118635D01*
X31999Y118626D01*
X31903Y118620D01*
X31807Y118618D01*
X29535Y120241D02*
X29436Y120448D01*
X29343Y120659D01*
X29255Y120871D01*
X29172Y121085D01*
X29094Y121301D01*
X29021Y121519D01*
X28953Y121739D01*
X28891Y121960D01*
X28834Y122183D01*
X28782Y122407D01*
X28736Y122632D01*
X28695Y122858D01*
X28660Y123085D01*
X28630Y123313D01*
X28605Y123542D01*
X28586Y123771D01*
X28572Y124000D01*
X28564Y124230D01*
X28561Y124460D01*
X29535Y120241D02*
X29568Y120151D01*
X29604Y120062D01*
X29645Y119974D01*
X29688Y119889D01*
X29735Y119805D01*
X29785Y119723D01*
X29839Y119643D01*
X29895Y119565D01*
X29955Y119490D01*
X30018Y119417D01*
X30083Y119347D01*
X30152Y119279D01*
X30223Y119215D01*
X30296Y119153D01*
X30372Y119094D01*
X30450Y119038D01*
X30531Y118985D01*
X30613Y118936D01*
X30697Y118890D01*
X30784Y118847D01*
X30871Y118808D01*
X30961Y118772D01*
X31051Y118740D01*
X31143Y118712D01*
X31236Y118687D01*
X31330Y118666D01*
X31424Y118649D01*
X31519Y118635D01*
X31615Y118626D01*
X31711Y118620D01*
X31807Y118618D01*
X34403Y121214D02*
X29210Y127706D01*
M02*
