G04 EAGLE Gerber RS-274X export*
G75*
%MOMM*%
%FSLAX34Y34*%
%LPD*%
%INSilkscreen Top*%
%IPPOS*%
%AMOC8*
5,1,8,0,0,1.08239X$1,22.5*%
G01*
%ADD10C,0.101600*%
%ADD11C,0.127000*%


D10*
X82987Y31242D02*
X82987Y19558D01*
X81689Y19558D02*
X84286Y19558D01*
X84286Y31242D02*
X81689Y31242D01*
X91449Y19558D02*
X94046Y19558D01*
X91449Y19558D02*
X91350Y19560D01*
X91250Y19566D01*
X91151Y19575D01*
X91053Y19588D01*
X90955Y19605D01*
X90857Y19626D01*
X90761Y19651D01*
X90666Y19679D01*
X90572Y19711D01*
X90479Y19746D01*
X90387Y19785D01*
X90297Y19828D01*
X90209Y19873D01*
X90122Y19923D01*
X90038Y19975D01*
X89955Y20031D01*
X89875Y20089D01*
X89797Y20151D01*
X89722Y20216D01*
X89649Y20284D01*
X89579Y20354D01*
X89511Y20427D01*
X89446Y20502D01*
X89384Y20580D01*
X89326Y20660D01*
X89270Y20743D01*
X89218Y20827D01*
X89168Y20914D01*
X89123Y21002D01*
X89080Y21092D01*
X89041Y21184D01*
X89006Y21277D01*
X88974Y21371D01*
X88946Y21466D01*
X88921Y21562D01*
X88900Y21660D01*
X88883Y21758D01*
X88870Y21856D01*
X88861Y21955D01*
X88855Y22055D01*
X88853Y22154D01*
X88853Y28646D01*
X88855Y28745D01*
X88861Y28845D01*
X88870Y28944D01*
X88883Y29042D01*
X88900Y29140D01*
X88921Y29238D01*
X88946Y29334D01*
X88974Y29429D01*
X89006Y29523D01*
X89041Y29616D01*
X89080Y29708D01*
X89123Y29798D01*
X89168Y29886D01*
X89218Y29973D01*
X89270Y30057D01*
X89326Y30140D01*
X89384Y30220D01*
X89446Y30298D01*
X89511Y30373D01*
X89579Y30446D01*
X89649Y30516D01*
X89722Y30584D01*
X89797Y30649D01*
X89875Y30711D01*
X89955Y30769D01*
X90038Y30825D01*
X90122Y30877D01*
X90209Y30927D01*
X90297Y30972D01*
X90387Y31015D01*
X90479Y31054D01*
X90571Y31089D01*
X90666Y31121D01*
X90761Y31149D01*
X90857Y31174D01*
X90955Y31195D01*
X91053Y31212D01*
X91151Y31225D01*
X91250Y31234D01*
X91350Y31240D01*
X91449Y31242D01*
X94046Y31242D01*
X98411Y28646D02*
X101656Y31242D01*
X101656Y19558D01*
X98411Y19558D02*
X104902Y19558D01*
D11*
X149860Y214630D02*
X156210Y214630D01*
D10*
X135834Y130302D02*
X132588Y127706D01*
X135834Y130302D02*
X135834Y118618D01*
X139079Y118618D02*
X132588Y118618D01*
X34883Y118618D02*
X30988Y118618D01*
X34883Y118618D02*
X34982Y118620D01*
X35082Y118626D01*
X35181Y118635D01*
X35279Y118648D01*
X35377Y118665D01*
X35475Y118686D01*
X35571Y118711D01*
X35666Y118739D01*
X35760Y118771D01*
X35853Y118806D01*
X35945Y118845D01*
X36035Y118888D01*
X36123Y118933D01*
X36210Y118983D01*
X36294Y119035D01*
X36377Y119091D01*
X36457Y119149D01*
X36535Y119211D01*
X36610Y119276D01*
X36683Y119344D01*
X36753Y119414D01*
X36821Y119487D01*
X36886Y119562D01*
X36948Y119640D01*
X37006Y119720D01*
X37062Y119803D01*
X37114Y119887D01*
X37164Y119974D01*
X37209Y120062D01*
X37252Y120152D01*
X37291Y120244D01*
X37326Y120337D01*
X37358Y120431D01*
X37386Y120526D01*
X37411Y120622D01*
X37432Y120720D01*
X37449Y120818D01*
X37462Y120916D01*
X37471Y121015D01*
X37477Y121115D01*
X37479Y121214D01*
X37479Y122513D01*
X37477Y122612D01*
X37471Y122712D01*
X37462Y122811D01*
X37449Y122909D01*
X37432Y123007D01*
X37411Y123105D01*
X37386Y123201D01*
X37358Y123296D01*
X37326Y123390D01*
X37291Y123483D01*
X37252Y123575D01*
X37209Y123665D01*
X37164Y123753D01*
X37114Y123840D01*
X37062Y123924D01*
X37006Y124007D01*
X36948Y124087D01*
X36886Y124165D01*
X36821Y124240D01*
X36753Y124313D01*
X36683Y124383D01*
X36610Y124451D01*
X36535Y124516D01*
X36457Y124578D01*
X36377Y124636D01*
X36294Y124692D01*
X36210Y124744D01*
X36123Y124794D01*
X36035Y124839D01*
X35945Y124882D01*
X35853Y124921D01*
X35760Y124956D01*
X35666Y124988D01*
X35571Y125016D01*
X35475Y125041D01*
X35377Y125062D01*
X35279Y125079D01*
X35181Y125092D01*
X35082Y125101D01*
X34982Y125107D01*
X34883Y125109D01*
X30988Y125109D01*
X30988Y130302D01*
X37479Y130302D01*
X27263Y131572D02*
X27263Y122484D01*
X27262Y122484D02*
X27260Y122385D01*
X27254Y122285D01*
X27245Y122186D01*
X27232Y122088D01*
X27215Y121990D01*
X27194Y121892D01*
X27169Y121796D01*
X27141Y121701D01*
X27109Y121607D01*
X27074Y121514D01*
X27035Y121422D01*
X26992Y121332D01*
X26947Y121244D01*
X26897Y121157D01*
X26845Y121073D01*
X26789Y120990D01*
X26731Y120910D01*
X26669Y120832D01*
X26604Y120757D01*
X26536Y120684D01*
X26466Y120614D01*
X26393Y120546D01*
X26318Y120481D01*
X26240Y120419D01*
X26160Y120361D01*
X26077Y120305D01*
X25993Y120253D01*
X25906Y120203D01*
X25818Y120158D01*
X25728Y120115D01*
X25636Y120076D01*
X25543Y120041D01*
X25449Y120009D01*
X25354Y119981D01*
X25258Y119956D01*
X25160Y119935D01*
X25062Y119918D01*
X24964Y119905D01*
X24865Y119896D01*
X24765Y119890D01*
X24666Y119888D01*
X23368Y119888D01*
X32536Y128976D02*
X35782Y131572D01*
X35782Y119888D01*
X39027Y119888D02*
X32536Y119888D01*
M02*
